G04*
G04 #@! TF.GenerationSoftware,Altium Limited,Altium Designer,25.2.1 (25)*
G04*
G04 Layer_Color=8421504*
%FSLAX25Y25*%
%MOIN*%
G70*
G04*
G04 #@! TF.SameCoordinates,CDFB58AD-87DA-4B59-9970-4E5CFD4F10CE*
G04*
G04*
G04 #@! TF.FilePolarity,Positive*
G04*
G01*
G75*
%ADD15R,0.02756X0.04724*%
%ADD16R,0.02992X0.04724*%
%ADD17R,0.03150X0.04724*%
%ADD18R,0.03740X0.03347*%
%ADD19R,0.07874X0.07087*%
G04:AMPARAMS|DCode=20|XSize=21.65mil|YSize=31.5mil|CornerRadius=1.95mil|HoleSize=0mil|Usage=FLASHONLY|Rotation=180.000|XOffset=0mil|YOffset=0mil|HoleType=Round|Shape=RoundedRectangle|*
%AMROUNDEDRECTD20*
21,1,0.02165,0.02760,0,0,180.0*
21,1,0.01776,0.03150,0,0,180.0*
1,1,0.00390,-0.00888,0.01380*
1,1,0.00390,0.00888,0.01380*
1,1,0.00390,0.00888,-0.01380*
1,1,0.00390,-0.00888,-0.01380*
%
%ADD20ROUNDEDRECTD20*%
%ADD21R,0.04724X0.02362*%
%ADD22R,0.06890X0.17717*%
%ADD23R,0.03347X0.03740*%
%ADD24R,0.03681X0.03788*%
%ADD25R,0.03394X0.02894*%
%ADD26R,0.03701X0.02126*%
%ADD27R,0.03937X0.03543*%
%ADD28R,0.03543X0.03937*%
%ADD29R,0.00984X0.02264*%
%ADD30R,0.00984X0.02165*%
%ADD31R,0.01575X0.04921*%
%ADD32R,0.03937X0.01575*%
%ADD33R,0.02165X0.00984*%
%ADD34R,0.01772X0.00886*%
%ADD35R,0.04134X0.01575*%
%ADD36R,0.08780X0.07087*%
G04:AMPARAMS|DCode=37|XSize=35.43mil|YSize=9.84mil|CornerRadius=1.97mil|HoleSize=0mil|Usage=FLASHONLY|Rotation=180.000|XOffset=0mil|YOffset=0mil|HoleType=Round|Shape=RoundedRectangle|*
%AMROUNDEDRECTD37*
21,1,0.03543,0.00591,0,0,180.0*
21,1,0.03150,0.00984,0,0,180.0*
1,1,0.00394,-0.01575,0.00295*
1,1,0.00394,0.01575,0.00295*
1,1,0.00394,0.01575,-0.00295*
1,1,0.00394,-0.01575,-0.00295*
%
%ADD37ROUNDEDRECTD37*%
G04:AMPARAMS|DCode=38|XSize=23.62mil|YSize=9.84mil|CornerRadius=1.97mil|HoleSize=0mil|Usage=FLASHONLY|Rotation=180.000|XOffset=0mil|YOffset=0mil|HoleType=Round|Shape=RoundedRectangle|*
%AMROUNDEDRECTD38*
21,1,0.02362,0.00591,0,0,180.0*
21,1,0.01968,0.00984,0,0,180.0*
1,1,0.00394,-0.00984,0.00295*
1,1,0.00394,0.00984,0.00295*
1,1,0.00394,0.00984,-0.00295*
1,1,0.00394,-0.00984,-0.00295*
%
%ADD38ROUNDEDRECTD38*%
G04:AMPARAMS|DCode=39|XSize=43.31mil|YSize=23.62mil|CornerRadius=2.01mil|HoleSize=0mil|Usage=FLASHONLY|Rotation=0.000|XOffset=0mil|YOffset=0mil|HoleType=Round|Shape=RoundedRectangle|*
%AMROUNDEDRECTD39*
21,1,0.04331,0.01961,0,0,0.0*
21,1,0.03929,0.02362,0,0,0.0*
1,1,0.00402,0.01965,-0.00980*
1,1,0.00402,-0.01965,-0.00980*
1,1,0.00402,-0.01965,0.00980*
1,1,0.00402,0.01965,0.00980*
%
%ADD39ROUNDEDRECTD39*%
%ADD40R,0.03150X0.03543*%
G36*
X509776Y309736D02*
Y309775D01*
X509806Y309848D01*
X509861Y309903D01*
X509933Y309933D01*
X509972D01*
D01*
X511744D01*
X511783D01*
X511856Y309903D01*
X511911Y309848D01*
X511941Y309775D01*
Y309736D01*
D01*
Y309146D01*
Y309106D01*
X511911Y309034D01*
X511856Y308979D01*
X511783Y308949D01*
X511744D01*
D01*
X509972D01*
X509933D01*
X509861Y308979D01*
X509806Y309034D01*
X509776Y309106D01*
Y309146D01*
D01*
Y309736D01*
D02*
G37*
G36*
X514697Y309933D02*
X514736D01*
X514808Y309903D01*
X514864Y309848D01*
X514894Y309775D01*
Y309736D01*
D01*
Y309146D01*
Y309106D01*
X514864Y309034D01*
X514808Y308979D01*
X514736Y308949D01*
X514697D01*
D01*
X512925D01*
X512886D01*
X512814Y308979D01*
X512758Y309034D01*
X512728Y309106D01*
Y309146D01*
D01*
Y309736D01*
Y309775D01*
X512758Y309848D01*
X512814Y309903D01*
X512886Y309933D01*
X512925D01*
D01*
X514697D01*
D02*
G37*
D15*
X512484Y128500D02*
D03*
X508547D02*
D03*
D16*
X516500D02*
D03*
X504531D02*
D03*
D17*
X521343D02*
D03*
X499689D02*
D03*
D18*
X546500Y124941D02*
D03*
Y130059D02*
D03*
X538000Y134941D02*
D03*
Y140059D02*
D03*
X494500Y214559D02*
D03*
Y209441D02*
D03*
X621500Y273882D02*
D03*
Y279000D02*
D03*
X604500Y250000D02*
D03*
Y255118D02*
D03*
X506000Y266441D02*
D03*
Y271559D02*
D03*
X541500Y302500D02*
D03*
Y297382D02*
D03*
X492500Y284323D02*
D03*
Y289441D02*
D03*
X519000Y153500D02*
D03*
Y158618D02*
D03*
D19*
X524358Y342441D02*
D03*
X506642D02*
D03*
D20*
X604260Y342480D02*
D03*
X608000D02*
D03*
X611740D02*
D03*
Y352520D02*
D03*
X608000D02*
D03*
X604260D02*
D03*
D21*
X509579Y206240D02*
D03*
Y202500D02*
D03*
Y198760D02*
D03*
X519421D02*
D03*
Y206240D02*
D03*
D22*
X648705Y332000D02*
D03*
X661500D02*
D03*
D23*
X504000Y190500D02*
D03*
X498882D02*
D03*
X519559Y177500D02*
D03*
X514441D02*
D03*
X532441Y158500D02*
D03*
X537559D02*
D03*
D24*
X509867Y225500D02*
D03*
X515500D02*
D03*
D25*
X554000Y279423D02*
D03*
Y274577D02*
D03*
D26*
X628000Y296500D02*
D03*
Y302799D02*
D03*
X571000Y296201D02*
D03*
Y302500D02*
D03*
D27*
X652500Y250000D02*
D03*
Y255315D02*
D03*
X578500Y324342D02*
D03*
Y329658D02*
D03*
X657000Y290185D02*
D03*
Y295500D02*
D03*
X637000Y261685D02*
D03*
Y267000D02*
D03*
X528000Y300441D02*
D03*
Y295126D02*
D03*
D28*
X580685Y277500D02*
D03*
X586000D02*
D03*
X536685Y331441D02*
D03*
X542000D02*
D03*
X535000Y176500D02*
D03*
X529685D02*
D03*
D29*
X603768Y298205D02*
D03*
Y309331D02*
D03*
D30*
X605736Y298158D02*
D03*
Y309378D02*
D03*
D31*
X608000Y299535D02*
D03*
Y308000D02*
D03*
D32*
X608197Y303768D02*
D03*
D33*
X602587Y306720D02*
D03*
Y304752D02*
D03*
Y302783D02*
D03*
Y300815D02*
D03*
D34*
X602390Y298898D02*
D03*
Y308638D02*
D03*
D35*
X610854Y301209D02*
D03*
Y306327D02*
D03*
D36*
X572000Y351504D02*
D03*
Y363000D02*
D03*
X589000Y351252D02*
D03*
Y362748D02*
D03*
D37*
X511547Y305504D02*
D03*
Y307472D02*
D03*
Y311409D02*
D03*
Y313378D02*
D03*
D38*
X518043D02*
D03*
Y311409D02*
D03*
Y309441D02*
D03*
Y307472D02*
D03*
Y305504D02*
D03*
D39*
X507618Y166240D02*
D03*
Y162500D02*
D03*
Y158760D02*
D03*
X497382D02*
D03*
Y162500D02*
D03*
Y166240D02*
D03*
D40*
X530260Y220126D02*
D03*
X537740D02*
D03*
X534000Y228000D02*
D03*
M02*
