G04*
G04 #@! TF.GenerationSoftware,Altium Limited,Altium Designer,25.2.1 (25)*
G04*
G04 Layer_Physical_Order=4*
G04 Layer_Color=16711680*
%FSLAX25Y25*%
%MOIN*%
G70*
G04*
G04 #@! TF.SameCoordinates,CDFB58AD-87DA-4B59-9970-4E5CFD4F10CE*
G04*
G04*
G04 #@! TF.FilePolarity,Positive*
G04*
G01*
G75*
G04:AMPARAMS|DCode=60|XSize=43.31mil|YSize=66.93mil|CornerRadius=21.65mil|HoleSize=0mil|Usage=FLASHONLY|Rotation=0.000|XOffset=0mil|YOffset=0mil|HoleType=Round|Shape=RoundedRectangle|*
%AMROUNDEDRECTD60*
21,1,0.04331,0.02362,0,0,0.0*
21,1,0.00000,0.06693,0,0,0.0*
1,1,0.04331,0.00000,-0.01181*
1,1,0.04331,0.00000,-0.01181*
1,1,0.04331,0.00000,0.01181*
1,1,0.04331,0.00000,0.01181*
%
%ADD60ROUNDEDRECTD60*%
%ADD69C,0.01500*%
%ADD70R,0.05906X0.05906*%
%ADD71C,0.05906*%
%ADD72C,0.13583*%
%ADD73C,0.05634*%
%ADD74C,0.20000*%
%ADD75R,0.05906X0.05906*%
%ADD76C,0.05118*%
%ADD77C,0.05000*%
D60*
X527524Y113224D02*
D03*
X493508D02*
D03*
X527524Y128185D02*
D03*
X493508D02*
D03*
D69*
X529286Y352500D02*
X530165Y351621D01*
X491500Y347000D02*
X497000Y352500D01*
X529286D01*
X530165Y350883D02*
Y351621D01*
X614500Y301500D02*
X619500Y296500D01*
X591000Y301500D02*
X614500D01*
X563500Y279500D02*
X596000Y312000D01*
X617500D01*
X555500Y233000D02*
X675500D01*
X652000Y263197D02*
Y271000D01*
Y263197D02*
X677197Y238000D01*
X677303D01*
X680750Y234553D01*
Y219625D02*
Y234553D01*
X646500Y185375D02*
X680750Y219625D01*
X646500Y169500D02*
Y185375D01*
X517500Y271000D02*
X555500Y233000D01*
X561500Y365000D02*
X580303D01*
X677500Y267803D01*
Y243000D02*
Y267803D01*
X617500Y305500D02*
X652000Y271000D01*
X617500Y305500D02*
Y312000D01*
X533500Y347500D02*
Y347548D01*
X530165Y350883D02*
X533500Y347548D01*
X491500Y315500D02*
Y347000D01*
Y315500D02*
X501000Y306000D01*
X497500Y318447D02*
Y342000D01*
Y318447D02*
X501000Y314947D01*
Y314000D02*
Y314947D01*
X548000Y177500D02*
X556000Y185500D01*
X491000Y177500D02*
X548000D01*
D70*
X686500Y233000D02*
D03*
X686000Y193500D02*
D03*
D71*
X686500Y243000D02*
D03*
Y253000D02*
D03*
Y263000D02*
D03*
Y273000D02*
D03*
X544500Y196000D02*
D03*
X534500D02*
D03*
X686000Y203500D02*
D03*
D72*
Y146000D02*
D03*
X634268D02*
D03*
D73*
X673913Y156669D02*
D03*
X664071D02*
D03*
X656197D02*
D03*
X646354D02*
D03*
D74*
X684500Y365000D02*
D03*
X497000D02*
D03*
X591000Y126000D02*
D03*
D75*
X554500Y196000D02*
D03*
D76*
X652000Y202500D02*
D03*
X644126D02*
D03*
D77*
X562500Y129500D02*
D03*
X690500Y265500D02*
D03*
X634000Y135000D02*
D03*
X686000Y134500D02*
D03*
X596000Y315750D02*
D03*
X591000Y301500D02*
D03*
X571000Y293000D02*
D03*
X619500Y296500D02*
D03*
X675500Y233000D02*
D03*
X637000Y255000D02*
D03*
X646500Y169500D02*
D03*
X517500Y271000D02*
D03*
X677500Y243000D02*
D03*
X561500Y365000D02*
D03*
X563500Y279500D02*
D03*
X617500Y312000D02*
D03*
X652000Y271000D02*
D03*
X520000Y298500D02*
D03*
X638000Y327000D02*
D03*
Y338000D02*
D03*
X566500Y307000D02*
D03*
X533500Y290000D02*
D03*
X570000Y330000D02*
D03*
X540000Y232000D02*
D03*
X525000Y314000D02*
D03*
X533500Y347500D02*
D03*
X497500Y342000D02*
D03*
X501000Y306000D02*
D03*
Y314000D02*
D03*
X502000Y208500D02*
D03*
X534500Y301000D02*
D03*
X603500Y336500D02*
D03*
X577500Y274500D02*
D03*
X544795Y190914D02*
D03*
X679500Y162500D02*
D03*
X689500Y189500D02*
D03*
X690000Y276000D02*
D03*
X599500Y243500D02*
D03*
X653000Y242500D02*
D03*
X657000Y282500D02*
D03*
X613500Y295500D02*
D03*
X571500Y341000D02*
D03*
X578500Y317500D02*
D03*
X529500Y331500D02*
D03*
X493000Y278000D02*
D03*
X522000Y225500D02*
D03*
X527000Y173000D02*
D03*
X499951Y147451D02*
D03*
X544500Y206500D02*
D03*
X556000Y185500D02*
D03*
X491000Y177500D02*
D03*
M02*
