M48
;Layer_Color=9474304
;FILE_FORMAT=2:4
INCH,TZ
;TYPE=PLATED
T02F00S00C0.0280
T03F00S00C0.0315
T04F00S00C0.0354
T05F00S00C0.0362
T06F00S00C0.0906
T07F00S00C0.1339
%
T02
X49995Y14745
X56250Y12950
X63400Y13500
X68600Y13450
X67950Y16250
X68950Y18950
X67550Y23300
X67750Y24300
X65300Y24250
X63700Y25500
X65200Y27100
X65700Y28250
X69000Y27600
X69050Y26550
X64650Y16950
X55600Y18550
X54479Y19091
X54450Y20650
X54000Y23200
X52200Y22550
X50200Y20850
X49100Y17750
X52700Y17300
X51750Y27100
X52000Y29850
X53450Y30100
X53350Y29000
X57100Y29300
X56650Y30700
X59100Y30150
X61350Y29550
X61950Y29650
X61750Y31200
X57750Y27450
X56350Y27950
X59950Y24350
X49300Y27800
X50100Y30600
Y31400
X52500
X52950Y33150
X53350Y34750
X49750Y34200
X57150Y34100
X57000Y33000
X57850Y31750
X59600Y31575
X60350Y33650
X56150Y36500
X63800Y33800
Y32700
T03
X64413Y20250
X65200
T04
X68600Y19350
Y20350
X68650Y23300
Y24300
Y25300
Y26300
Y27300
X55450Y19600
X54450
X53450
T05
X64635Y15667
X65620
X66407
X67391
T06
X63427Y14600
X68600
T07
X59100Y12600
X49700Y36500
X68450
M30
