G04*
G04 #@! TF.GenerationSoftware,Altium Limited,Altium Designer,25.2.1 (25)*
G04*
G04 Layer_Physical_Order=3*
G04 Layer_Color=16440176*
%FSLAX25Y25*%
%MOIN*%
G70*
G04*
G04 #@! TF.SameCoordinates,CDFB58AD-87DA-4B59-9970-4E5CFD4F10CE*
G04*
G04*
G04 #@! TF.FilePolarity,Positive*
G04*
G01*
G75*
G04:AMPARAMS|DCode=60|XSize=43.31mil|YSize=66.93mil|CornerRadius=21.65mil|HoleSize=0mil|Usage=FLASHONLY|Rotation=0.000|XOffset=0mil|YOffset=0mil|HoleType=Round|Shape=RoundedRectangle|*
%AMROUNDEDRECTD60*
21,1,0.04331,0.02362,0,0,0.0*
21,1,0.00000,0.06693,0,0,0.0*
1,1,0.04331,0.00000,-0.01181*
1,1,0.04331,0.00000,-0.01181*
1,1,0.04331,0.00000,0.01181*
1,1,0.04331,0.00000,0.01181*
%
%ADD60ROUNDEDRECTD60*%
%ADD70R,0.05906X0.05906*%
%ADD71C,0.05906*%
%ADD72C,0.13583*%
%ADD73C,0.05634*%
%ADD74C,0.20000*%
%ADD75R,0.05906X0.05906*%
%ADD76C,0.05118*%
%ADD77C,0.05000*%
G36*
X699199Y108155D02*
X698845Y107801D01*
X696929Y107801D01*
X696929Y107801D01*
X695929Y107801D01*
X695929Y107801D01*
X482301Y107801D01*
X482301Y379699D01*
X699199Y379699D01*
X699199Y108155D01*
D02*
G37*
%LPC*%
G36*
X685319Y375400D02*
X684700D01*
Y365200D01*
X694900D01*
Y365819D01*
X694644Y367435D01*
X694138Y368992D01*
X693395Y370451D01*
X692433Y371775D01*
X691275Y372933D01*
X689951Y373895D01*
X688492Y374638D01*
X686935Y375144D01*
X685319Y375400D01*
D02*
G37*
G36*
X684300D02*
X683681D01*
X682065Y375144D01*
X680508Y374638D01*
X679049Y373895D01*
X677725Y372933D01*
X676567Y371775D01*
X675605Y370451D01*
X674862Y368992D01*
X674356Y367435D01*
X674100Y365819D01*
Y365200D01*
X684300D01*
Y375400D01*
D02*
G37*
G36*
X497819D02*
X497200D01*
Y365200D01*
X507400D01*
Y365819D01*
X507144Y367435D01*
X506638Y368992D01*
X505895Y370451D01*
X504933Y371775D01*
X503775Y372933D01*
X502451Y373895D01*
X500992Y374638D01*
X499435Y375144D01*
X497819Y375400D01*
D02*
G37*
G36*
X496800D02*
X496181D01*
X494565Y375144D01*
X493008Y374638D01*
X491549Y373895D01*
X490225Y372933D01*
X489067Y371775D01*
X488105Y370451D01*
X487362Y368992D01*
X486856Y367435D01*
X486600Y365819D01*
Y365200D01*
X496800D01*
Y375400D01*
D02*
G37*
G36*
X561895Y368000D02*
X561105D01*
X560342Y367796D01*
X559658Y367401D01*
X559099Y366842D01*
X558704Y366158D01*
X558500Y365395D01*
Y364605D01*
X558704Y363842D01*
X559099Y363158D01*
X559658Y362599D01*
X560342Y362204D01*
X561105Y362000D01*
X561895D01*
X562658Y362204D01*
X563342Y362599D01*
X563901Y363158D01*
X564296Y363842D01*
X564500Y364605D01*
Y365395D01*
X564296Y366158D01*
X563901Y366842D01*
X563342Y367401D01*
X562658Y367796D01*
X561895Y368000D01*
D02*
G37*
G36*
X694900Y364800D02*
X684700D01*
Y354600D01*
X685319D01*
X686935Y354856D01*
X688492Y355362D01*
X689951Y356105D01*
X691275Y357067D01*
X692433Y358225D01*
X693395Y359549D01*
X694138Y361008D01*
X694644Y362565D01*
X694900Y364181D01*
Y364800D01*
D02*
G37*
G36*
X684300D02*
X674100D01*
Y364181D01*
X674356Y362565D01*
X674862Y361008D01*
X675605Y359549D01*
X676567Y358225D01*
X677725Y357067D01*
X679049Y356105D01*
X680508Y355362D01*
X682065Y354856D01*
X683681Y354600D01*
X684300D01*
Y364800D01*
D02*
G37*
G36*
X507400D02*
X497200D01*
Y354600D01*
X497819D01*
X499435Y354856D01*
X500992Y355362D01*
X502451Y356105D01*
X503775Y357067D01*
X504933Y358225D01*
X505895Y359549D01*
X506638Y361008D01*
X507144Y362565D01*
X507400Y364181D01*
Y364800D01*
D02*
G37*
G36*
X496800D02*
X486600D01*
Y364181D01*
X486856Y362565D01*
X487362Y361008D01*
X488105Y359549D01*
X489067Y358225D01*
X490225Y357067D01*
X491549Y356105D01*
X493008Y355362D01*
X494565Y354856D01*
X496181Y354600D01*
X496800D01*
Y364800D01*
D02*
G37*
G36*
X533895Y350500D02*
X533105D01*
X532342Y350296D01*
X531658Y349901D01*
X531099Y349342D01*
X530704Y348658D01*
X530500Y347895D01*
Y347105D01*
X530704Y346342D01*
X531099Y345658D01*
X531658Y345099D01*
X532342Y344704D01*
X533105Y344500D01*
X533895D01*
X534658Y344704D01*
X535342Y345099D01*
X535901Y345658D01*
X536296Y346342D01*
X536500Y347105D01*
Y347895D01*
X536296Y348658D01*
X535901Y349342D01*
X535342Y349901D01*
X534658Y350296D01*
X533895Y350500D01*
D02*
G37*
G36*
X497895Y345000D02*
X497105D01*
X496342Y344796D01*
X495658Y344401D01*
X495099Y343842D01*
X494704Y343158D01*
X494500Y342395D01*
Y341605D01*
X494704Y340842D01*
X495099Y340158D01*
X495658Y339599D01*
X496342Y339204D01*
X497105Y339000D01*
X497895D01*
X498658Y339204D01*
X499342Y339599D01*
X499901Y340158D01*
X500296Y340842D01*
X500500Y341605D01*
Y342395D01*
X500296Y343158D01*
X499901Y343842D01*
X499342Y344401D01*
X498658Y344796D01*
X497895Y345000D01*
D02*
G37*
G36*
X638395Y341000D02*
X637605D01*
X636842Y340796D01*
X636158Y340401D01*
X635599Y339842D01*
X635204Y339158D01*
X635000Y338395D01*
Y337605D01*
X635204Y336842D01*
X635599Y336158D01*
X636158Y335599D01*
X636842Y335204D01*
X637605Y335000D01*
X638395D01*
X639158Y335204D01*
X639842Y335599D01*
X640401Y336158D01*
X640796Y336842D01*
X641000Y337605D01*
Y338395D01*
X640796Y339158D01*
X640401Y339842D01*
X639842Y340401D01*
X639158Y340796D01*
X638395Y341000D01*
D02*
G37*
G36*
X570395Y333000D02*
X569605D01*
X568842Y332796D01*
X568158Y332401D01*
X567599Y331842D01*
X567204Y331158D01*
X567000Y330395D01*
Y329605D01*
X567204Y328842D01*
X567599Y328158D01*
X568158Y327599D01*
X568842Y327204D01*
X569605Y327000D01*
X570395D01*
X571158Y327204D01*
X571842Y327599D01*
X572401Y328158D01*
X572796Y328842D01*
X573000Y329605D01*
Y330395D01*
X572796Y331158D01*
X572401Y331842D01*
X571842Y332401D01*
X571158Y332796D01*
X570395Y333000D01*
D02*
G37*
G36*
X638395Y330000D02*
X637605D01*
X636842Y329796D01*
X636158Y329401D01*
X635599Y328842D01*
X635204Y328158D01*
X635000Y327395D01*
Y326605D01*
X635204Y325842D01*
X635599Y325158D01*
X636158Y324599D01*
X636842Y324204D01*
X637605Y324000D01*
X638395D01*
X639158Y324204D01*
X639842Y324599D01*
X640401Y325158D01*
X640796Y325842D01*
X641000Y326605D01*
Y327395D01*
X640796Y328158D01*
X640401Y328842D01*
X639842Y329401D01*
X639158Y329796D01*
X638395Y330000D01*
D02*
G37*
G36*
X596395Y318750D02*
X595605D01*
X594842Y318546D01*
X594158Y318151D01*
X593599Y317592D01*
X593204Y316908D01*
X593000Y316145D01*
Y315355D01*
X593204Y314592D01*
X593599Y313908D01*
X594158Y313349D01*
X594842Y312954D01*
X595605Y312750D01*
X596395D01*
X597158Y312954D01*
X597842Y313349D01*
X598401Y313908D01*
X598796Y314592D01*
X599000Y315355D01*
Y316145D01*
X598796Y316908D01*
X598401Y317592D01*
X597842Y318151D01*
X597158Y318546D01*
X596395Y318750D01*
D02*
G37*
G36*
X525395Y317000D02*
X524605D01*
X523842Y316796D01*
X523158Y316401D01*
X522599Y315842D01*
X522204Y315158D01*
X522000Y314395D01*
Y313605D01*
X522204Y312842D01*
X522599Y312158D01*
X523158Y311599D01*
X523842Y311204D01*
X524605Y311000D01*
X525395D01*
X526158Y311204D01*
X526842Y311599D01*
X527401Y312158D01*
X527796Y312842D01*
X528000Y313605D01*
Y314395D01*
X527796Y315158D01*
X527401Y315842D01*
X526842Y316401D01*
X526158Y316796D01*
X525395Y317000D01*
D02*
G37*
G36*
X501395D02*
X500605D01*
X499842Y316796D01*
X499158Y316401D01*
X498599Y315842D01*
X498204Y315158D01*
X498000Y314395D01*
Y313605D01*
X498204Y312842D01*
X498599Y312158D01*
X499158Y311599D01*
X499842Y311204D01*
X500605Y311000D01*
X501395D01*
X502158Y311204D01*
X502842Y311599D01*
X503401Y312158D01*
X503796Y312842D01*
X504000Y313605D01*
Y314395D01*
X503796Y315158D01*
X503401Y315842D01*
X502842Y316401D01*
X502158Y316796D01*
X501395Y317000D01*
D02*
G37*
G36*
X617895Y315000D02*
X617105D01*
X616342Y314796D01*
X615658Y314401D01*
X615099Y313842D01*
X614704Y313158D01*
X614500Y312395D01*
Y311605D01*
X614704Y310842D01*
X615099Y310158D01*
X615658Y309599D01*
X616342Y309204D01*
X617105Y309000D01*
X617895D01*
X618658Y309204D01*
X619342Y309599D01*
X619901Y310158D01*
X620296Y310842D01*
X620500Y311605D01*
Y312395D01*
X620296Y313158D01*
X619901Y313842D01*
X619342Y314401D01*
X618658Y314796D01*
X617895Y315000D01*
D02*
G37*
G36*
X566895Y310000D02*
X566105D01*
X565342Y309796D01*
X564658Y309401D01*
X564099Y308842D01*
X563704Y308158D01*
X563500Y307395D01*
Y306605D01*
X563704Y305842D01*
X564099Y305158D01*
X564658Y304599D01*
X565342Y304204D01*
X566105Y304000D01*
X566895D01*
X567658Y304204D01*
X568342Y304599D01*
X568901Y305158D01*
X569296Y305842D01*
X569500Y306605D01*
Y307395D01*
X569296Y308158D01*
X568901Y308842D01*
X568342Y309401D01*
X567658Y309796D01*
X566895Y310000D01*
D02*
G37*
G36*
X501395Y309000D02*
X500605D01*
X499842Y308796D01*
X499158Y308401D01*
X498599Y307842D01*
X498204Y307158D01*
X498000Y306395D01*
Y305605D01*
X498204Y304842D01*
X498599Y304158D01*
X499158Y303599D01*
X499842Y303204D01*
X500605Y303000D01*
X501395D01*
X502158Y303204D01*
X502842Y303599D01*
X503401Y304158D01*
X503796Y304842D01*
X504000Y305605D01*
Y306395D01*
X503796Y307158D01*
X503401Y307842D01*
X502842Y308401D01*
X502158Y308796D01*
X501395Y309000D01*
D02*
G37*
G36*
X591395Y304500D02*
X590605D01*
X589842Y304296D01*
X589158Y303901D01*
X588599Y303342D01*
X588204Y302658D01*
X588000Y301895D01*
Y301105D01*
X588204Y300342D01*
X588599Y299658D01*
X589158Y299099D01*
X589842Y298704D01*
X590605Y298500D01*
X591395D01*
X592158Y298704D01*
X592842Y299099D01*
X593401Y299658D01*
X593796Y300342D01*
X594000Y301105D01*
Y301895D01*
X593796Y302658D01*
X593401Y303342D01*
X592842Y303901D01*
X592158Y304296D01*
X591395Y304500D01*
D02*
G37*
G36*
X520395Y301500D02*
X519605D01*
X518842Y301296D01*
X518158Y300901D01*
X517599Y300342D01*
X517204Y299658D01*
X517000Y298895D01*
Y298105D01*
X517204Y297342D01*
X517599Y296658D01*
X518158Y296099D01*
X518842Y295704D01*
X519605Y295500D01*
X520395D01*
X521158Y295704D01*
X521842Y296099D01*
X522401Y296658D01*
X522796Y297342D01*
X523000Y298105D01*
Y298895D01*
X522796Y299658D01*
X522401Y300342D01*
X521842Y300901D01*
X521158Y301296D01*
X520395Y301500D01*
D02*
G37*
G36*
X619895Y299500D02*
X619105D01*
X618342Y299296D01*
X617658Y298901D01*
X617099Y298342D01*
X616704Y297658D01*
X616500Y296895D01*
Y296105D01*
X616704Y295342D01*
X617099Y294658D01*
X617658Y294099D01*
X618342Y293704D01*
X619105Y293500D01*
X619895D01*
X620658Y293704D01*
X621342Y294099D01*
X621901Y294658D01*
X622296Y295342D01*
X622500Y296105D01*
Y296895D01*
X622296Y297658D01*
X621901Y298342D01*
X621342Y298901D01*
X620658Y299296D01*
X619895Y299500D01*
D02*
G37*
G36*
X533895Y293000D02*
X533105D01*
X532342Y292796D01*
X531658Y292401D01*
X531099Y291842D01*
X530704Y291158D01*
X530500Y290395D01*
Y289605D01*
X530704Y288842D01*
X531099Y288158D01*
X531658Y287599D01*
X532342Y287204D01*
X533105Y287000D01*
X533895D01*
X534658Y287204D01*
X535342Y287599D01*
X535901Y288158D01*
X536296Y288842D01*
X536500Y289605D01*
Y290395D01*
X536296Y291158D01*
X535901Y291842D01*
X535342Y292401D01*
X534658Y292796D01*
X533895Y293000D01*
D02*
G37*
G36*
X563895Y282500D02*
X563105D01*
X562342Y282296D01*
X561658Y281901D01*
X561099Y281342D01*
X560704Y280658D01*
X560500Y279895D01*
Y279105D01*
X560704Y278342D01*
X561099Y277658D01*
X561658Y277099D01*
X562342Y276704D01*
X563105Y276500D01*
X563895D01*
X564658Y276704D01*
X565342Y277099D01*
X565901Y277658D01*
X566296Y278342D01*
X566500Y279105D01*
Y279895D01*
X566296Y280658D01*
X565901Y281342D01*
X565342Y281901D01*
X564658Y282296D01*
X563895Y282500D01*
D02*
G37*
G36*
X686941Y276353D02*
X686700D01*
Y273200D01*
X689853D01*
Y273441D01*
X689624Y274294D01*
X689183Y275059D01*
X688559Y275683D01*
X687794Y276124D01*
X686941Y276353D01*
D02*
G37*
G36*
X686300D02*
X686059D01*
X685206Y276124D01*
X684441Y275683D01*
X683817Y275059D01*
X683376Y274294D01*
X683147Y273441D01*
Y273200D01*
X686300D01*
Y276353D01*
D02*
G37*
G36*
X689853Y272800D02*
X686700D01*
Y269647D01*
X686941D01*
X687794Y269876D01*
X688559Y270317D01*
X689183Y270941D01*
X689624Y271706D01*
X689853Y272559D01*
Y272800D01*
D02*
G37*
G36*
X686300D02*
X683147D01*
Y272559D01*
X683376Y271706D01*
X683817Y270941D01*
X684441Y270317D01*
X685206Y269876D01*
X686059Y269647D01*
X686300D01*
Y272800D01*
D02*
G37*
G36*
X652395Y274000D02*
X651605D01*
X650842Y273796D01*
X650158Y273401D01*
X649599Y272842D01*
X649204Y272158D01*
X649000Y271395D01*
Y270605D01*
X649204Y269842D01*
X649599Y269158D01*
X650158Y268599D01*
X650842Y268204D01*
X651605Y268000D01*
X652395D01*
X653158Y268204D01*
X653842Y268599D01*
X654401Y269158D01*
X654796Y269842D01*
X655000Y270605D01*
Y271395D01*
X654796Y272158D01*
X654401Y272842D01*
X653842Y273401D01*
X653158Y273796D01*
X652395Y274000D01*
D02*
G37*
G36*
X517895D02*
X517105D01*
X516342Y273796D01*
X515658Y273401D01*
X515099Y272842D01*
X514704Y272158D01*
X514500Y271395D01*
Y270605D01*
X514704Y269842D01*
X515099Y269158D01*
X515658Y268599D01*
X516342Y268204D01*
X517105Y268000D01*
X517895D01*
X518658Y268204D01*
X519342Y268599D01*
X519901Y269158D01*
X520296Y269842D01*
X520500Y270605D01*
Y271395D01*
X520296Y272158D01*
X519901Y272842D01*
X519342Y273401D01*
X518658Y273796D01*
X517895Y274000D01*
D02*
G37*
G36*
X690895Y268500D02*
X690105D01*
X689342Y268296D01*
X688658Y267901D01*
X688099Y267342D01*
X687704Y266658D01*
X687669Y266524D01*
X687235Y266274D01*
X686941Y266353D01*
X686059D01*
X685206Y266124D01*
X684441Y265683D01*
X683817Y265059D01*
X683376Y264294D01*
X683147Y263441D01*
Y262559D01*
X683376Y261706D01*
X683817Y260941D01*
X684441Y260317D01*
X685206Y259876D01*
X686059Y259647D01*
X686941D01*
X687794Y259876D01*
X688559Y260317D01*
X689183Y260941D01*
X689624Y261706D01*
X689853Y262559D01*
X689861Y262565D01*
X690105Y262500D01*
X690895D01*
X691658Y262704D01*
X692342Y263099D01*
X692901Y263658D01*
X693296Y264342D01*
X693500Y265105D01*
Y265895D01*
X693296Y266658D01*
X692901Y267342D01*
X692342Y267901D01*
X691658Y268296D01*
X690895Y268500D01*
D02*
G37*
G36*
X686941Y256353D02*
X686059D01*
X685206Y256124D01*
X684441Y255683D01*
X683817Y255059D01*
X683376Y254294D01*
X683147Y253441D01*
Y252559D01*
X683376Y251706D01*
X683817Y250941D01*
X684441Y250317D01*
X685206Y249876D01*
X686059Y249647D01*
X686941D01*
X687794Y249876D01*
X688559Y250317D01*
X689183Y250941D01*
X689624Y251706D01*
X689853Y252559D01*
Y253441D01*
X689624Y254294D01*
X689183Y255059D01*
X688559Y255683D01*
X687794Y256124D01*
X686941Y256353D01*
D02*
G37*
G36*
X677895Y246000D02*
X677105D01*
X676342Y245796D01*
X675658Y245401D01*
X675099Y244842D01*
X674704Y244158D01*
X674500Y243395D01*
Y242605D01*
X674704Y241842D01*
X675099Y241158D01*
X675658Y240599D01*
X676342Y240204D01*
X677105Y240000D01*
X677895D01*
X678658Y240204D01*
X679342Y240599D01*
X679901Y241158D01*
X680296Y241842D01*
X680500Y242605D01*
Y243395D01*
X680296Y244158D01*
X679901Y244842D01*
X679342Y245401D01*
X678658Y245796D01*
X677895Y246000D01*
D02*
G37*
G36*
X686941Y246353D02*
X686059D01*
X685206Y246124D01*
X684441Y245683D01*
X683817Y245059D01*
X683376Y244294D01*
X683147Y243441D01*
Y242559D01*
X683376Y241706D01*
X683817Y240941D01*
X684441Y240317D01*
X685206Y239876D01*
X686059Y239647D01*
X686941D01*
X687794Y239876D01*
X688559Y240317D01*
X689183Y240941D01*
X689624Y241706D01*
X689853Y242559D01*
Y243441D01*
X689624Y244294D01*
X689183Y245059D01*
X688559Y245683D01*
X687794Y246124D01*
X686941Y246353D01*
D02*
G37*
G36*
X675895Y236000D02*
X675105D01*
X674342Y235796D01*
X673658Y235401D01*
X673099Y234842D01*
X672704Y234158D01*
X672500Y233395D01*
Y232605D01*
X672704Y231842D01*
X673099Y231158D01*
X673658Y230599D01*
X674342Y230204D01*
X675105Y230000D01*
X675895D01*
X676658Y230204D01*
X677342Y230599D01*
X677901Y231158D01*
X678296Y231842D01*
X678500Y232605D01*
Y233395D01*
X678296Y234158D01*
X677901Y234842D01*
X677342Y235401D01*
X676658Y235796D01*
X675895Y236000D01*
D02*
G37*
G36*
X689853Y236353D02*
X683147D01*
Y229647D01*
X689853D01*
Y236353D01*
D02*
G37*
G36*
X540395Y235000D02*
X539605D01*
X538842Y234796D01*
X538158Y234401D01*
X537599Y233842D01*
X537204Y233158D01*
X537000Y232395D01*
Y231605D01*
X537204Y230842D01*
X537599Y230158D01*
X538158Y229599D01*
X538842Y229204D01*
X539605Y229000D01*
X540395D01*
X541158Y229204D01*
X541842Y229599D01*
X542401Y230158D01*
X542796Y230842D01*
X543000Y231605D01*
Y232395D01*
X542796Y233158D01*
X542401Y233842D01*
X541842Y234401D01*
X541158Y234796D01*
X540395Y235000D01*
D02*
G37*
G36*
X644516Y205459D02*
X644326D01*
Y202700D01*
X647085D01*
Y202890D01*
X646883Y203642D01*
X646494Y204317D01*
X645943Y204868D01*
X645268Y205257D01*
X644516Y205459D01*
D02*
G37*
G36*
X643926D02*
X643736D01*
X642984Y205257D01*
X642309Y204868D01*
X641758Y204317D01*
X641369Y203642D01*
X641167Y202890D01*
Y202700D01*
X643926D01*
Y205459D01*
D02*
G37*
G36*
X686441Y206853D02*
X685559D01*
X684706Y206624D01*
X683941Y206183D01*
X683317Y205559D01*
X682876Y204794D01*
X682647Y203941D01*
Y203059D01*
X682876Y202206D01*
X683317Y201441D01*
X683941Y200817D01*
X684706Y200376D01*
X685559Y200147D01*
X686441D01*
X687294Y200376D01*
X688059Y200817D01*
X688683Y201441D01*
X689124Y202206D01*
X689353Y203059D01*
Y203941D01*
X689124Y204794D01*
X688683Y205559D01*
X688059Y206183D01*
X687294Y206624D01*
X686441Y206853D01*
D02*
G37*
G36*
X652390Y205459D02*
X651610D01*
X650858Y205257D01*
X650183Y204868D01*
X649632Y204317D01*
X649243Y203642D01*
X649041Y202890D01*
Y202110D01*
X649243Y201358D01*
X649632Y200683D01*
X650183Y200132D01*
X650858Y199743D01*
X651610Y199541D01*
X652390D01*
X653142Y199743D01*
X653817Y200132D01*
X654368Y200683D01*
X654757Y201358D01*
X654959Y202110D01*
Y202890D01*
X654757Y203642D01*
X654368Y204317D01*
X653817Y204868D01*
X653142Y205257D01*
X652390Y205459D01*
D02*
G37*
G36*
X647085Y202300D02*
X644326D01*
Y199541D01*
X644516D01*
X645268Y199743D01*
X645943Y200132D01*
X646494Y200683D01*
X646883Y201358D01*
X647085Y202110D01*
Y202300D01*
D02*
G37*
G36*
X643926D02*
X641167D01*
Y202110D01*
X641369Y201358D01*
X641758Y200683D01*
X642309Y200132D01*
X642984Y199743D01*
X643736Y199541D01*
X643926D01*
Y202300D01*
D02*
G37*
G36*
X544941Y199353D02*
X544700D01*
Y196200D01*
X547853D01*
Y196441D01*
X547624Y197294D01*
X547183Y198059D01*
X546559Y198683D01*
X545794Y199124D01*
X544941Y199353D01*
D02*
G37*
G36*
X544300D02*
X544059D01*
X543206Y199124D01*
X542441Y198683D01*
X541817Y198059D01*
X541376Y197294D01*
X541147Y196441D01*
Y196200D01*
X544300D01*
Y199353D01*
D02*
G37*
G36*
X689353Y196853D02*
X686200D01*
Y193700D01*
X689353D01*
Y196853D01*
D02*
G37*
G36*
X685800D02*
X682647D01*
Y193700D01*
X685800D01*
Y196853D01*
D02*
G37*
G36*
X557853Y199353D02*
X551147D01*
Y192647D01*
X557853D01*
Y199353D01*
D02*
G37*
G36*
X547853Y195800D02*
X544700D01*
Y192647D01*
X544941D01*
X545794Y192876D01*
X546559Y193317D01*
X547183Y193941D01*
X547624Y194706D01*
X547853Y195559D01*
Y195800D01*
D02*
G37*
G36*
X544300D02*
X541147D01*
Y195559D01*
X541376Y194706D01*
X541817Y193941D01*
X542441Y193317D01*
X543206Y192876D01*
X544059Y192647D01*
X544300D01*
Y195800D01*
D02*
G37*
G36*
X534941Y199353D02*
X534059D01*
X533206Y199124D01*
X532441Y198683D01*
X531817Y198059D01*
X531376Y197294D01*
X531147Y196441D01*
Y195559D01*
X531376Y194706D01*
X531817Y193941D01*
X532441Y193317D01*
X533206Y192876D01*
X534059Y192647D01*
X534941D01*
X535794Y192876D01*
X536559Y193317D01*
X537183Y193941D01*
X537624Y194706D01*
X537853Y195559D01*
Y196441D01*
X537624Y197294D01*
X537183Y198059D01*
X536559Y198683D01*
X535794Y199124D01*
X534941Y199353D01*
D02*
G37*
G36*
X689353Y193300D02*
X686200D01*
Y190147D01*
X689353D01*
Y193300D01*
D02*
G37*
G36*
X685800D02*
X682647D01*
Y190147D01*
X685800D01*
Y193300D01*
D02*
G37*
G36*
X556395Y188500D02*
X555605D01*
X554842Y188296D01*
X554158Y187901D01*
X553599Y187342D01*
X553204Y186658D01*
X553000Y185895D01*
Y185105D01*
X553204Y184342D01*
X553599Y183658D01*
X554158Y183099D01*
X554842Y182704D01*
X555605Y182500D01*
X556395D01*
X557158Y182704D01*
X557842Y183099D01*
X558401Y183658D01*
X558796Y184342D01*
X559000Y185105D01*
Y185895D01*
X558796Y186658D01*
X558401Y187342D01*
X557842Y187901D01*
X557158Y188296D01*
X556395Y188500D01*
D02*
G37*
G36*
X491395Y180500D02*
X490605D01*
X489842Y180296D01*
X489158Y179901D01*
X488599Y179342D01*
X488204Y178658D01*
X488000Y177895D01*
Y177105D01*
X488204Y176342D01*
X488599Y175658D01*
X489158Y175099D01*
X489842Y174704D01*
X490605Y174500D01*
X491395D01*
X492158Y174704D01*
X492842Y175099D01*
X493401Y175658D01*
X493796Y176342D01*
X494000Y177105D01*
Y177895D01*
X493796Y178658D01*
X493401Y179342D01*
X492842Y179901D01*
X492158Y180296D01*
X491395Y180500D01*
D02*
G37*
G36*
X646895Y172500D02*
X646105D01*
X645342Y172296D01*
X644658Y171901D01*
X644099Y171342D01*
X643704Y170658D01*
X643500Y169895D01*
Y169105D01*
X643704Y168342D01*
X644099Y167658D01*
X644658Y167099D01*
X645342Y166704D01*
X646105Y166500D01*
X646895D01*
X647658Y166704D01*
X648342Y167099D01*
X648901Y167658D01*
X649296Y168342D01*
X649500Y169105D01*
Y169895D01*
X649296Y170658D01*
X648901Y171342D01*
X648342Y171901D01*
X647658Y172296D01*
X646895Y172500D01*
D02*
G37*
G36*
X674337Y159886D02*
X674113D01*
Y156869D01*
X677130D01*
Y157093D01*
X676911Y157911D01*
X676488Y158644D01*
X675889Y159244D01*
X675155Y159667D01*
X674337Y159886D01*
D02*
G37*
G36*
X673713D02*
X673490D01*
X672672Y159667D01*
X671938Y159244D01*
X671339Y158644D01*
X670916Y157911D01*
X670696Y157093D01*
Y156869D01*
X673713D01*
Y159886D01*
D02*
G37*
G36*
X677130Y156469D02*
X674113D01*
Y153452D01*
X674337D01*
X675155Y153672D01*
X675889Y154095D01*
X676488Y154694D01*
X676911Y155428D01*
X677130Y156246D01*
Y156469D01*
D02*
G37*
G36*
X673713D02*
X670696D01*
Y156246D01*
X670916Y155428D01*
X671339Y154694D01*
X671938Y154095D01*
X672672Y153672D01*
X673490Y153452D01*
X673713D01*
Y156469D01*
D02*
G37*
G36*
X664494Y159886D02*
X663647D01*
X662829Y159667D01*
X662096Y159244D01*
X661497Y158644D01*
X661073Y157911D01*
X660854Y157093D01*
Y156246D01*
X661073Y155428D01*
X661497Y154694D01*
X662096Y154095D01*
X662829Y153672D01*
X663647Y153452D01*
X664494D01*
X665313Y153672D01*
X666046Y154095D01*
X666645Y154694D01*
X667069Y155428D01*
X667288Y156246D01*
Y157093D01*
X667069Y157911D01*
X666645Y158644D01*
X666046Y159244D01*
X665313Y159667D01*
X664494Y159886D01*
D02*
G37*
G36*
X656620D02*
X655773D01*
X654955Y159667D01*
X654222Y159244D01*
X653623Y158644D01*
X653199Y157911D01*
X652980Y157093D01*
Y156246D01*
X653199Y155428D01*
X653623Y154694D01*
X654222Y154095D01*
X654955Y153672D01*
X655773Y153452D01*
X656620D01*
X657439Y153672D01*
X658172Y154095D01*
X658771Y154694D01*
X659195Y155428D01*
X659414Y156246D01*
Y157093D01*
X659195Y157911D01*
X658771Y158644D01*
X658172Y159244D01*
X657439Y159667D01*
X656620Y159886D01*
D02*
G37*
G36*
X646778D02*
X645931D01*
X645113Y159667D01*
X644379Y159244D01*
X643780Y158644D01*
X643357Y157911D01*
X643137Y157093D01*
Y156246D01*
X643357Y155428D01*
X643780Y154694D01*
X644379Y154095D01*
X645113Y153672D01*
X645931Y153452D01*
X646778D01*
X647596Y153672D01*
X648330Y154095D01*
X648928Y154694D01*
X649352Y155428D01*
X649571Y156246D01*
Y157093D01*
X649352Y157911D01*
X648928Y158644D01*
X648330Y159244D01*
X647596Y159667D01*
X646778Y159886D01*
D02*
G37*
G36*
X686708Y153191D02*
X686200D01*
Y146200D01*
X693191D01*
Y146708D01*
X692915Y148098D01*
X692373Y149406D01*
X691586Y150584D01*
X690584Y151586D01*
X689406Y152373D01*
X688098Y152915D01*
X686708Y153191D01*
D02*
G37*
G36*
X685800D02*
X685292D01*
X683902Y152915D01*
X682594Y152373D01*
X681416Y151586D01*
X680414Y150584D01*
X679627Y149406D01*
X679085Y148098D01*
X678809Y146708D01*
Y146200D01*
X685800D01*
Y153191D01*
D02*
G37*
G36*
X634976D02*
X634468D01*
Y146200D01*
X641459D01*
Y146708D01*
X641183Y148098D01*
X640641Y149406D01*
X639854Y150584D01*
X638852Y151586D01*
X637674Y152373D01*
X636365Y152915D01*
X634976Y153191D01*
D02*
G37*
G36*
X634068D02*
X633559D01*
X632170Y152915D01*
X630861Y152373D01*
X629683Y151586D01*
X628682Y150584D01*
X627895Y149406D01*
X627353Y148098D01*
X627076Y146708D01*
Y146200D01*
X634068D01*
Y153191D01*
D02*
G37*
G36*
X693191Y145800D02*
X686200D01*
Y138809D01*
X686708D01*
X688098Y139085D01*
X689406Y139627D01*
X690584Y140414D01*
X691586Y141416D01*
X692373Y142594D01*
X692915Y143902D01*
X693191Y145292D01*
Y145800D01*
D02*
G37*
G36*
X685800D02*
X678809D01*
Y145292D01*
X679085Y143902D01*
X679627Y142594D01*
X680414Y141416D01*
X681416Y140414D01*
X682594Y139627D01*
X683902Y139085D01*
X685292Y138809D01*
X685800D01*
Y145800D01*
D02*
G37*
G36*
X641459D02*
X634468D01*
Y138809D01*
X634976D01*
X636365Y139085D01*
X637674Y139627D01*
X638852Y140414D01*
X639854Y141416D01*
X640641Y142594D01*
X641183Y143902D01*
X641459Y145292D01*
Y145800D01*
D02*
G37*
G36*
X634068D02*
X627076D01*
Y145292D01*
X627353Y143902D01*
X627895Y142594D01*
X628682Y141416D01*
X629683Y140414D01*
X630861Y139627D01*
X632170Y139085D01*
X633559Y138809D01*
X634068D01*
Y145800D01*
D02*
G37*
G36*
X527724Y131927D02*
Y128385D01*
X530111D01*
Y129366D01*
X530023Y130036D01*
X529765Y130660D01*
X529353Y131196D01*
X528817Y131607D01*
X528193Y131866D01*
X527724Y131927D01*
D02*
G37*
G36*
X527324D02*
X526854Y131866D01*
X526230Y131607D01*
X525694Y131196D01*
X525283Y130660D01*
X525024Y130036D01*
X524936Y129366D01*
Y128385D01*
X527324D01*
Y131927D01*
D02*
G37*
G36*
X493708D02*
Y128385D01*
X496095D01*
Y129366D01*
X496007Y130036D01*
X495749Y130660D01*
X495337Y131196D01*
X494802Y131607D01*
X494178Y131866D01*
X493708Y131927D01*
D02*
G37*
G36*
X493308D02*
X492838Y131866D01*
X492214Y131607D01*
X491678Y131196D01*
X491267Y130660D01*
X491009Y130036D01*
X490920Y129366D01*
Y128385D01*
X493308D01*
Y131927D01*
D02*
G37*
G36*
X591819Y136400D02*
X591200D01*
Y126200D01*
X601400D01*
Y126819D01*
X601144Y128435D01*
X600638Y129992D01*
X599895Y131451D01*
X598933Y132775D01*
X597775Y133933D01*
X596451Y134895D01*
X594992Y135638D01*
X593435Y136144D01*
X591819Y136400D01*
D02*
G37*
G36*
X590800D02*
X590181D01*
X588565Y136144D01*
X587008Y135638D01*
X585549Y134895D01*
X584225Y133933D01*
X583067Y132775D01*
X582105Y131451D01*
X581362Y129992D01*
X580856Y128435D01*
X580600Y126819D01*
Y126200D01*
X590800D01*
Y136400D01*
D02*
G37*
G36*
X530111Y127985D02*
X527724D01*
Y124443D01*
X528193Y124505D01*
X528817Y124763D01*
X529353Y125174D01*
X529765Y125710D01*
X530023Y126334D01*
X530111Y127004D01*
Y127985D01*
D02*
G37*
G36*
X527324D02*
X524936D01*
Y127004D01*
X525024Y126334D01*
X525283Y125710D01*
X525694Y125174D01*
X526230Y124763D01*
X526854Y124505D01*
X527324Y124443D01*
Y127985D01*
D02*
G37*
G36*
X496095D02*
X493708D01*
Y124443D01*
X494178Y124505D01*
X494802Y124763D01*
X495337Y125174D01*
X495749Y125710D01*
X496007Y126334D01*
X496095Y127004D01*
Y127985D01*
D02*
G37*
G36*
X493308D02*
X490920D01*
Y127004D01*
X491009Y126334D01*
X491267Y125710D01*
X491678Y125174D01*
X492214Y124763D01*
X492838Y124505D01*
X493308Y124443D01*
Y127985D01*
D02*
G37*
G36*
X601400Y125800D02*
X591200D01*
Y115600D01*
X591819D01*
X593435Y115856D01*
X594992Y116362D01*
X596451Y117105D01*
X597775Y118067D01*
X598933Y119225D01*
X599895Y120549D01*
X600638Y122008D01*
X601144Y123565D01*
X601400Y125181D01*
Y125800D01*
D02*
G37*
G36*
X590800D02*
X580600D01*
Y125181D01*
X580856Y123565D01*
X581362Y122008D01*
X582105Y120549D01*
X583067Y119225D01*
X584225Y118067D01*
X585549Y117105D01*
X587008Y116362D01*
X588565Y115856D01*
X590181Y115600D01*
X590800D01*
Y125800D01*
D02*
G37*
G36*
X527724Y116967D02*
Y113424D01*
X530111D01*
Y114406D01*
X530023Y115075D01*
X529765Y115699D01*
X529353Y116235D01*
X528817Y116646D01*
X528193Y116905D01*
X527724Y116967D01*
D02*
G37*
G36*
X527324D02*
X526854Y116905D01*
X526230Y116646D01*
X525694Y116235D01*
X525283Y115699D01*
X525024Y115075D01*
X524936Y114406D01*
Y113424D01*
X527324D01*
Y116967D01*
D02*
G37*
G36*
X493708D02*
Y113424D01*
X496095D01*
Y114406D01*
X496007Y115075D01*
X495749Y115699D01*
X495337Y116235D01*
X494802Y116646D01*
X494178Y116905D01*
X493708Y116967D01*
D02*
G37*
G36*
X493308D02*
X492838Y116905D01*
X492214Y116646D01*
X491678Y116235D01*
X491267Y115699D01*
X491009Y115075D01*
X490920Y114406D01*
Y113424D01*
X493308D01*
Y116967D01*
D02*
G37*
G36*
X530111Y113024D02*
X527724D01*
Y109482D01*
X528193Y109544D01*
X528817Y109802D01*
X529353Y110214D01*
X529765Y110750D01*
X530023Y111374D01*
X530111Y112043D01*
Y113024D01*
D02*
G37*
G36*
X527324D02*
X524936D01*
Y112043D01*
X525024Y111374D01*
X525283Y110750D01*
X525694Y110214D01*
X526230Y109802D01*
X526854Y109544D01*
X527324Y109482D01*
Y113024D01*
D02*
G37*
G36*
X496095D02*
X493708D01*
Y109482D01*
X494178Y109544D01*
X494802Y109802D01*
X495337Y110214D01*
X495749Y110750D01*
X496007Y111374D01*
X496095Y112043D01*
Y113024D01*
D02*
G37*
G36*
X493308D02*
X490920D01*
Y112043D01*
X491009Y111374D01*
X491267Y110750D01*
X491678Y110214D01*
X492214Y109802D01*
X492838Y109544D01*
X493308Y109482D01*
Y113024D01*
D02*
G37*
%LPD*%
D60*
X527524Y113224D02*
D03*
X493508D02*
D03*
X527524Y128185D02*
D03*
X493508D02*
D03*
D70*
X686500Y233000D02*
D03*
X686000Y193500D02*
D03*
D71*
X686500Y243000D02*
D03*
Y253000D02*
D03*
Y263000D02*
D03*
Y273000D02*
D03*
X544500Y196000D02*
D03*
X534500D02*
D03*
X686000Y203500D02*
D03*
D72*
Y146000D02*
D03*
X634268D02*
D03*
D73*
X673913Y156669D02*
D03*
X664071D02*
D03*
X656197D02*
D03*
X646354D02*
D03*
D74*
X684500Y365000D02*
D03*
X497000D02*
D03*
X591000Y126000D02*
D03*
D75*
X554500Y196000D02*
D03*
D76*
X652000Y202500D02*
D03*
X644126D02*
D03*
D77*
X562500Y129500D02*
D03*
X690500Y265500D02*
D03*
X634000Y135000D02*
D03*
X686000Y134500D02*
D03*
X596000Y315750D02*
D03*
X591000Y301500D02*
D03*
X571000Y293000D02*
D03*
X619500Y296500D02*
D03*
X675500Y233000D02*
D03*
X637000Y255000D02*
D03*
X646500Y169500D02*
D03*
X517500Y271000D02*
D03*
X677500Y243000D02*
D03*
X561500Y365000D02*
D03*
X563500Y279500D02*
D03*
X617500Y312000D02*
D03*
X652000Y271000D02*
D03*
X520000Y298500D02*
D03*
X638000Y327000D02*
D03*
Y338000D02*
D03*
X566500Y307000D02*
D03*
X533500Y290000D02*
D03*
X570000Y330000D02*
D03*
X540000Y232000D02*
D03*
X525000Y314000D02*
D03*
X533500Y347500D02*
D03*
X497500Y342000D02*
D03*
X501000Y306000D02*
D03*
Y314000D02*
D03*
X502000Y208500D02*
D03*
X534500Y301000D02*
D03*
X603500Y336500D02*
D03*
X577500Y274500D02*
D03*
X544795Y190914D02*
D03*
X679500Y162500D02*
D03*
X689500Y189500D02*
D03*
X690000Y276000D02*
D03*
X599500Y243500D02*
D03*
X653000Y242500D02*
D03*
X657000Y282500D02*
D03*
X613500Y295500D02*
D03*
X571500Y341000D02*
D03*
X578500Y317500D02*
D03*
X529500Y331500D02*
D03*
X493000Y278000D02*
D03*
X522000Y225500D02*
D03*
X527000Y173000D02*
D03*
X499951Y147451D02*
D03*
X544500Y206500D02*
D03*
X556000Y185500D02*
D03*
X491000Y177500D02*
D03*
M02*
