G04*
G04 #@! TF.GenerationSoftware,Altium Limited,Altium Designer,25.2.1 (25)*
G04*
G04 Layer_Physical_Order=2*
G04 Layer_Color=36540*
%FSLAX25Y25*%
%MOIN*%
G70*
G04*
G04 #@! TF.SameCoordinates,CDFB58AD-87DA-4B59-9970-4E5CFD4F10CE*
G04*
G04*
G04 #@! TF.FilePolarity,Positive*
G04*
G01*
G75*
G04:AMPARAMS|DCode=60|XSize=43.31mil|YSize=66.93mil|CornerRadius=21.65mil|HoleSize=0mil|Usage=FLASHONLY|Rotation=0.000|XOffset=0mil|YOffset=0mil|HoleType=Round|Shape=RoundedRectangle|*
%AMROUNDEDRECTD60*
21,1,0.04331,0.02362,0,0,0.0*
21,1,0.00000,0.06693,0,0,0.0*
1,1,0.04331,0.00000,-0.01181*
1,1,0.04331,0.00000,-0.01181*
1,1,0.04331,0.00000,0.01181*
1,1,0.04331,0.00000,0.01181*
%
%ADD60ROUNDEDRECTD60*%
%ADD70R,0.05906X0.05906*%
%ADD71C,0.05906*%
%ADD72C,0.13583*%
%ADD73C,0.05634*%
%ADD74C,0.20000*%
%ADD75R,0.05906X0.05906*%
%ADD76C,0.05118*%
%ADD77C,0.05000*%
G36*
X699199Y108155D02*
X698845Y107801D01*
X696929Y107801D01*
X696929Y107801D01*
X695929Y107801D01*
X695929Y107801D01*
X482301Y107801D01*
X482301Y379699D01*
X699199Y379699D01*
X699199Y108155D01*
D02*
G37*
%LPC*%
G36*
X561895Y368000D02*
X561105D01*
X560342Y367796D01*
X559658Y367401D01*
X559099Y366842D01*
X558704Y366158D01*
X558500Y365395D01*
Y364605D01*
X558704Y363842D01*
X559099Y363158D01*
X559658Y362599D01*
X560342Y362204D01*
X561105Y362000D01*
X561895D01*
X562658Y362204D01*
X563342Y362599D01*
X563901Y363158D01*
X564296Y363842D01*
X564500Y364605D01*
Y365395D01*
X564296Y366158D01*
X563901Y366842D01*
X563342Y367401D01*
X562658Y367796D01*
X561895Y368000D01*
D02*
G37*
G36*
X685319Y375400D02*
X683681D01*
X682065Y375144D01*
X680508Y374638D01*
X679049Y373895D01*
X677725Y372933D01*
X676567Y371775D01*
X675605Y370451D01*
X674862Y368992D01*
X674356Y367435D01*
X674100Y365819D01*
Y364181D01*
X674356Y362565D01*
X674862Y361008D01*
X675605Y359549D01*
X676567Y358225D01*
X677725Y357067D01*
X679049Y356105D01*
X680508Y355362D01*
X682065Y354856D01*
X683681Y354600D01*
X685319D01*
X686935Y354856D01*
X688492Y355362D01*
X689951Y356105D01*
X691275Y357067D01*
X692433Y358225D01*
X693395Y359549D01*
X694138Y361008D01*
X694644Y362565D01*
X694900Y364181D01*
Y365819D01*
X694644Y367435D01*
X694138Y368992D01*
X693395Y370451D01*
X692433Y371775D01*
X691275Y372933D01*
X689951Y373895D01*
X688492Y374638D01*
X686935Y375144D01*
X685319Y375400D01*
D02*
G37*
G36*
X497819D02*
X496181D01*
X494565Y375144D01*
X493008Y374638D01*
X491549Y373895D01*
X490225Y372933D01*
X489067Y371775D01*
X488105Y370451D01*
X487362Y368992D01*
X486856Y367435D01*
X486600Y365819D01*
Y364181D01*
X486856Y362565D01*
X487362Y361008D01*
X488105Y359549D01*
X489067Y358225D01*
X490225Y357067D01*
X491549Y356105D01*
X493008Y355362D01*
X494565Y354856D01*
X496181Y354600D01*
X497819D01*
X499435Y354856D01*
X500992Y355362D01*
X502451Y356105D01*
X503775Y357067D01*
X504933Y358225D01*
X505895Y359549D01*
X506638Y361008D01*
X507144Y362565D01*
X507400Y364181D01*
Y365819D01*
X507144Y367435D01*
X506638Y368992D01*
X505895Y370451D01*
X504933Y371775D01*
X503775Y372933D01*
X502451Y373895D01*
X500992Y374638D01*
X499435Y375144D01*
X497819Y375400D01*
D02*
G37*
G36*
X533895Y350500D02*
X533105D01*
X532342Y350296D01*
X531658Y349901D01*
X531099Y349342D01*
X530704Y348658D01*
X530500Y347895D01*
Y347105D01*
X530704Y346342D01*
X531099Y345658D01*
X531658Y345099D01*
X532342Y344704D01*
X533105Y344500D01*
X533895D01*
X534658Y344704D01*
X535342Y345099D01*
X535901Y345658D01*
X536296Y346342D01*
X536500Y347105D01*
Y347895D01*
X536296Y348658D01*
X535901Y349342D01*
X535342Y349901D01*
X534658Y350296D01*
X533895Y350500D01*
D02*
G37*
G36*
X497895Y345000D02*
X497105D01*
X496342Y344796D01*
X495658Y344401D01*
X495099Y343842D01*
X494704Y343158D01*
X494500Y342395D01*
Y341605D01*
X494704Y340842D01*
X495099Y340158D01*
X495658Y339599D01*
X496342Y339204D01*
X497105Y339000D01*
X497895D01*
X498658Y339204D01*
X499342Y339599D01*
X499901Y340158D01*
X500296Y340842D01*
X500500Y341605D01*
Y342395D01*
X500296Y343158D01*
X499901Y343842D01*
X499342Y344401D01*
X498658Y344796D01*
X497895Y345000D01*
D02*
G37*
G36*
X571895Y344000D02*
X571105D01*
X570342Y343796D01*
X569658Y343401D01*
X569099Y342842D01*
X568704Y342158D01*
X568500Y341395D01*
Y340605D01*
X568704Y339842D01*
X569099Y339158D01*
X569658Y338599D01*
X570342Y338204D01*
X571105Y338000D01*
X571895D01*
X572658Y338204D01*
X573342Y338599D01*
X573901Y339158D01*
X574296Y339842D01*
X574500Y340605D01*
Y341395D01*
X574296Y342158D01*
X573901Y342842D01*
X573342Y343401D01*
X572658Y343796D01*
X571895Y344000D01*
D02*
G37*
G36*
X603895Y339500D02*
X603105D01*
X602342Y339296D01*
X601658Y338901D01*
X601099Y338342D01*
X600704Y337658D01*
X600500Y336895D01*
Y336105D01*
X600704Y335342D01*
X601099Y334658D01*
X601658Y334099D01*
X602342Y333704D01*
X603105Y333500D01*
X603895D01*
X604658Y333704D01*
X605342Y334099D01*
X605901Y334658D01*
X606296Y335342D01*
X606500Y336105D01*
Y336895D01*
X606296Y337658D01*
X605901Y338342D01*
X605342Y338901D01*
X604658Y339296D01*
X603895Y339500D01*
D02*
G37*
G36*
X529895Y334500D02*
X529105D01*
X528342Y334296D01*
X527658Y333901D01*
X527099Y333342D01*
X526704Y332658D01*
X526500Y331895D01*
Y331105D01*
X526704Y330342D01*
X527099Y329658D01*
X527658Y329099D01*
X528342Y328704D01*
X529105Y328500D01*
X529895D01*
X530658Y328704D01*
X531342Y329099D01*
X531901Y329658D01*
X532296Y330342D01*
X532500Y331105D01*
Y331895D01*
X532296Y332658D01*
X531901Y333342D01*
X531342Y333901D01*
X530658Y334296D01*
X529895Y334500D01*
D02*
G37*
G36*
X578895Y320500D02*
X578105D01*
X577342Y320296D01*
X576658Y319901D01*
X576099Y319342D01*
X575704Y318658D01*
X575500Y317895D01*
Y317105D01*
X575704Y316342D01*
X576099Y315658D01*
X576658Y315099D01*
X577342Y314704D01*
X578105Y314500D01*
X578895D01*
X579658Y314704D01*
X580342Y315099D01*
X580901Y315658D01*
X581296Y316342D01*
X581500Y317105D01*
Y317895D01*
X581296Y318658D01*
X580901Y319342D01*
X580342Y319901D01*
X579658Y320296D01*
X578895Y320500D01*
D02*
G37*
G36*
X525395Y317000D02*
X524605D01*
X523842Y316796D01*
X523158Y316401D01*
X522599Y315842D01*
X522204Y315158D01*
X522000Y314395D01*
Y313605D01*
X522204Y312842D01*
X522599Y312158D01*
X523158Y311599D01*
X523842Y311204D01*
X524605Y311000D01*
X525395D01*
X526158Y311204D01*
X526842Y311599D01*
X527401Y312158D01*
X527796Y312842D01*
X528000Y313605D01*
Y314395D01*
X527796Y315158D01*
X527401Y315842D01*
X526842Y316401D01*
X526158Y316796D01*
X525395Y317000D01*
D02*
G37*
G36*
X501395D02*
X500605D01*
X499842Y316796D01*
X499158Y316401D01*
X498599Y315842D01*
X498204Y315158D01*
X498000Y314395D01*
Y313605D01*
X498204Y312842D01*
X498599Y312158D01*
X499158Y311599D01*
X499842Y311204D01*
X500605Y311000D01*
X501395D01*
X502158Y311204D01*
X502842Y311599D01*
X503401Y312158D01*
X503796Y312842D01*
X504000Y313605D01*
Y314395D01*
X503796Y315158D01*
X503401Y315842D01*
X502842Y316401D01*
X502158Y316796D01*
X501395Y317000D01*
D02*
G37*
G36*
X617895Y315000D02*
X617105D01*
X616342Y314796D01*
X615658Y314401D01*
X615099Y313842D01*
X614704Y313158D01*
X614500Y312395D01*
Y311605D01*
X614704Y310842D01*
X615099Y310158D01*
X615658Y309599D01*
X616342Y309204D01*
X617105Y309000D01*
X617895D01*
X618658Y309204D01*
X619342Y309599D01*
X619901Y310158D01*
X620296Y310842D01*
X620500Y311605D01*
Y312395D01*
X620296Y313158D01*
X619901Y313842D01*
X619342Y314401D01*
X618658Y314796D01*
X617895Y315000D01*
D02*
G37*
G36*
X501395Y309000D02*
X500605D01*
X499842Y308796D01*
X499158Y308401D01*
X498599Y307842D01*
X498204Y307158D01*
X498000Y306395D01*
Y305605D01*
X498204Y304842D01*
X498599Y304158D01*
X499158Y303599D01*
X499842Y303204D01*
X500605Y303000D01*
X501395D01*
X502158Y303204D01*
X502842Y303599D01*
X503401Y304158D01*
X503796Y304842D01*
X504000Y305605D01*
Y306395D01*
X503796Y307158D01*
X503401Y307842D01*
X502842Y308401D01*
X502158Y308796D01*
X501395Y309000D01*
D02*
G37*
G36*
X591395Y304500D02*
X590605D01*
X589842Y304296D01*
X589158Y303901D01*
X588599Y303342D01*
X588204Y302658D01*
X588000Y301895D01*
Y301105D01*
X588204Y300342D01*
X588599Y299658D01*
X589158Y299099D01*
X589842Y298704D01*
X590605Y298500D01*
X591395D01*
X592158Y298704D01*
X592842Y299099D01*
X593401Y299658D01*
X593796Y300342D01*
X594000Y301105D01*
Y301895D01*
X593796Y302658D01*
X593401Y303342D01*
X592842Y303901D01*
X592158Y304296D01*
X591395Y304500D01*
D02*
G37*
G36*
X534895Y304000D02*
X534105D01*
X533342Y303796D01*
X532658Y303401D01*
X532099Y302842D01*
X531704Y302158D01*
X531500Y301395D01*
Y300605D01*
X531704Y299842D01*
X532099Y299158D01*
X532658Y298599D01*
X533342Y298204D01*
X534105Y298000D01*
X534895D01*
X535658Y298204D01*
X536342Y298599D01*
X536901Y299158D01*
X537296Y299842D01*
X537500Y300605D01*
Y301395D01*
X537296Y302158D01*
X536901Y302842D01*
X536342Y303401D01*
X535658Y303796D01*
X534895Y304000D01*
D02*
G37*
G36*
X619895Y299500D02*
X619105D01*
X618342Y299296D01*
X617658Y298901D01*
X617099Y298342D01*
X616704Y297658D01*
X616575Y297174D01*
X616038Y297104D01*
X615901Y297342D01*
X615342Y297901D01*
X614658Y298296D01*
X613895Y298500D01*
X613105D01*
X612342Y298296D01*
X611658Y297901D01*
X611099Y297342D01*
X610704Y296658D01*
X610500Y295895D01*
Y295105D01*
X610704Y294342D01*
X611099Y293658D01*
X611658Y293099D01*
X612342Y292704D01*
X613105Y292500D01*
X613895D01*
X614658Y292704D01*
X615342Y293099D01*
X615901Y293658D01*
X616296Y294342D01*
X616425Y294826D01*
X616962Y294896D01*
X617099Y294658D01*
X617658Y294099D01*
X618342Y293704D01*
X619105Y293500D01*
X619895D01*
X620658Y293704D01*
X621342Y294099D01*
X621901Y294658D01*
X622296Y295342D01*
X622500Y296105D01*
Y296895D01*
X622296Y297658D01*
X621901Y298342D01*
X621342Y298901D01*
X620658Y299296D01*
X619895Y299500D01*
D02*
G37*
G36*
X571395Y296000D02*
X570605D01*
X569842Y295796D01*
X569158Y295401D01*
X568599Y294842D01*
X568204Y294158D01*
X568000Y293395D01*
Y292605D01*
X568204Y291842D01*
X568599Y291158D01*
X569158Y290599D01*
X569842Y290204D01*
X570605Y290000D01*
X571395D01*
X572158Y290204D01*
X572842Y290599D01*
X573401Y291158D01*
X573796Y291842D01*
X574000Y292605D01*
Y293395D01*
X573796Y294158D01*
X573401Y294842D01*
X572842Y295401D01*
X572158Y295796D01*
X571395Y296000D01*
D02*
G37*
G36*
X657395Y285500D02*
X656605D01*
X655842Y285296D01*
X655158Y284901D01*
X654599Y284342D01*
X654204Y283658D01*
X654000Y282895D01*
Y282105D01*
X654204Y281342D01*
X654599Y280658D01*
X655158Y280099D01*
X655842Y279704D01*
X656605Y279500D01*
X657395D01*
X658158Y279704D01*
X658842Y280099D01*
X659401Y280658D01*
X659796Y281342D01*
X660000Y282105D01*
Y282895D01*
X659796Y283658D01*
X659401Y284342D01*
X658842Y284901D01*
X658158Y285296D01*
X657395Y285500D01*
D02*
G37*
G36*
X563895Y282500D02*
X563105D01*
X562342Y282296D01*
X561658Y281901D01*
X561099Y281342D01*
X560704Y280658D01*
X560500Y279895D01*
Y279105D01*
X560704Y278342D01*
X561099Y277658D01*
X561658Y277099D01*
X562342Y276704D01*
X563105Y276500D01*
X563895D01*
X564658Y276704D01*
X565342Y277099D01*
X565901Y277658D01*
X566296Y278342D01*
X566500Y279105D01*
Y279895D01*
X566296Y280658D01*
X565901Y281342D01*
X565342Y281901D01*
X564658Y282296D01*
X563895Y282500D01*
D02*
G37*
G36*
X493395Y281000D02*
X492605D01*
X491842Y280796D01*
X491158Y280401D01*
X490599Y279842D01*
X490204Y279158D01*
X490000Y278395D01*
Y277605D01*
X490204Y276842D01*
X490599Y276158D01*
X491158Y275599D01*
X491842Y275204D01*
X492605Y275000D01*
X493395D01*
X494158Y275204D01*
X494842Y275599D01*
X495401Y276158D01*
X495796Y276842D01*
X496000Y277605D01*
Y278395D01*
X495796Y279158D01*
X495401Y279842D01*
X494842Y280401D01*
X494158Y280796D01*
X493395Y281000D01*
D02*
G37*
G36*
X577895Y277500D02*
X577105D01*
X576342Y277296D01*
X575658Y276901D01*
X575099Y276342D01*
X574704Y275658D01*
X574500Y274895D01*
Y274105D01*
X574704Y273342D01*
X575099Y272658D01*
X575658Y272099D01*
X576342Y271704D01*
X577105Y271500D01*
X577895D01*
X578658Y271704D01*
X579342Y272099D01*
X579901Y272658D01*
X580296Y273342D01*
X580500Y274105D01*
Y274895D01*
X580296Y275658D01*
X579901Y276342D01*
X579342Y276901D01*
X578658Y277296D01*
X577895Y277500D01*
D02*
G37*
G36*
X690395Y279000D02*
X689605D01*
X688842Y278796D01*
X688158Y278401D01*
X687599Y277842D01*
X687204Y277158D01*
X687115Y276824D01*
X686941Y276353D01*
X686059D01*
X685206Y276124D01*
X684441Y275683D01*
X683817Y275059D01*
X683376Y274294D01*
X683147Y273441D01*
Y272559D01*
X683376Y271706D01*
X683817Y270941D01*
X684441Y270317D01*
X685206Y269876D01*
X686059Y269647D01*
X686941D01*
X687794Y269876D01*
X688559Y270317D01*
X689183Y270941D01*
X689624Y271706D01*
X689853Y272559D01*
Y273000D01*
X690395D01*
X691158Y273204D01*
X691842Y273599D01*
X692401Y274158D01*
X692796Y274842D01*
X693000Y275605D01*
Y276395D01*
X692796Y277158D01*
X692401Y277842D01*
X691842Y278401D01*
X691158Y278796D01*
X690395Y279000D01*
D02*
G37*
G36*
X652395Y274000D02*
X651605D01*
X650842Y273796D01*
X650158Y273401D01*
X649599Y272842D01*
X649204Y272158D01*
X649000Y271395D01*
Y270605D01*
X649204Y269842D01*
X649599Y269158D01*
X650158Y268599D01*
X650842Y268204D01*
X651605Y268000D01*
X652395D01*
X653158Y268204D01*
X653842Y268599D01*
X654401Y269158D01*
X654796Y269842D01*
X655000Y270605D01*
Y271395D01*
X654796Y272158D01*
X654401Y272842D01*
X653842Y273401D01*
X653158Y273796D01*
X652395Y274000D01*
D02*
G37*
G36*
X517895D02*
X517105D01*
X516342Y273796D01*
X515658Y273401D01*
X515099Y272842D01*
X514704Y272158D01*
X514500Y271395D01*
Y270605D01*
X514704Y269842D01*
X515099Y269158D01*
X515658Y268599D01*
X516342Y268204D01*
X517105Y268000D01*
X517895D01*
X518658Y268204D01*
X519342Y268599D01*
X519901Y269158D01*
X520296Y269842D01*
X520500Y270605D01*
Y271395D01*
X520296Y272158D01*
X519901Y272842D01*
X519342Y273401D01*
X518658Y273796D01*
X517895Y274000D01*
D02*
G37*
G36*
X686941Y266353D02*
X686700D01*
Y263200D01*
X689853D01*
Y263441D01*
X689624Y264294D01*
X689183Y265059D01*
X688559Y265683D01*
X687794Y266124D01*
X686941Y266353D01*
D02*
G37*
G36*
X686300D02*
X686059D01*
X685206Y266124D01*
X684441Y265683D01*
X683817Y265059D01*
X683376Y264294D01*
X683147Y263441D01*
Y263200D01*
X686300D01*
Y266353D01*
D02*
G37*
G36*
X689853Y262800D02*
X686700D01*
Y259647D01*
X686941D01*
X687794Y259876D01*
X688559Y260317D01*
X689183Y260941D01*
X689624Y261706D01*
X689853Y262559D01*
Y262800D01*
D02*
G37*
G36*
X686300D02*
X683147D01*
Y262559D01*
X683376Y261706D01*
X683817Y260941D01*
X684441Y260317D01*
X685206Y259876D01*
X686059Y259647D01*
X686300D01*
Y262800D01*
D02*
G37*
G36*
X637395Y258000D02*
X636605D01*
X635842Y257796D01*
X635158Y257401D01*
X634599Y256842D01*
X634204Y256158D01*
X634000Y255395D01*
Y254605D01*
X634204Y253842D01*
X634599Y253158D01*
X635158Y252599D01*
X635842Y252204D01*
X636605Y252000D01*
X637395D01*
X638158Y252204D01*
X638842Y252599D01*
X639401Y253158D01*
X639796Y253842D01*
X640000Y254605D01*
Y255395D01*
X639796Y256158D01*
X639401Y256842D01*
X638842Y257401D01*
X638158Y257796D01*
X637395Y258000D01*
D02*
G37*
G36*
X686941Y256353D02*
X686059D01*
X685206Y256124D01*
X684441Y255683D01*
X683817Y255059D01*
X683376Y254294D01*
X683147Y253441D01*
Y252559D01*
X683376Y251706D01*
X683817Y250941D01*
X684441Y250317D01*
X685206Y249876D01*
X686059Y249647D01*
X686941D01*
X687794Y249876D01*
X688559Y250317D01*
X689183Y250941D01*
X689624Y251706D01*
X689853Y252559D01*
Y253441D01*
X689624Y254294D01*
X689183Y255059D01*
X688559Y255683D01*
X687794Y256124D01*
X686941Y256353D01*
D02*
G37*
G36*
X599895Y246500D02*
X599105D01*
X598342Y246296D01*
X597658Y245901D01*
X597099Y245342D01*
X596704Y244658D01*
X596500Y243895D01*
Y243105D01*
X596704Y242342D01*
X597099Y241658D01*
X597658Y241099D01*
X598342Y240704D01*
X599105Y240500D01*
X599895D01*
X600658Y240704D01*
X601342Y241099D01*
X601901Y241658D01*
X602296Y242342D01*
X602500Y243105D01*
Y243895D01*
X602296Y244658D01*
X601901Y245342D01*
X601342Y245901D01*
X600658Y246296D01*
X599895Y246500D01*
D02*
G37*
G36*
X677895Y246000D02*
X677105D01*
X676342Y245796D01*
X675658Y245401D01*
X675099Y244842D01*
X674704Y244158D01*
X674500Y243395D01*
Y242605D01*
X674704Y241842D01*
X675099Y241158D01*
X675658Y240599D01*
X676342Y240204D01*
X677105Y240000D01*
X677895D01*
X678658Y240204D01*
X679342Y240599D01*
X679901Y241158D01*
X680296Y241842D01*
X680500Y242605D01*
Y243395D01*
X680296Y244158D01*
X679901Y244842D01*
X679342Y245401D01*
X678658Y245796D01*
X677895Y246000D01*
D02*
G37*
G36*
X686941Y246353D02*
X686059D01*
X685206Y246124D01*
X684441Y245683D01*
X683817Y245059D01*
X683376Y244294D01*
X683147Y243441D01*
Y242559D01*
X683376Y241706D01*
X683817Y240941D01*
X684441Y240317D01*
X685206Y239876D01*
X686059Y239647D01*
X686941D01*
X687794Y239876D01*
X688559Y240317D01*
X689183Y240941D01*
X689624Y241706D01*
X689853Y242559D01*
Y243441D01*
X689624Y244294D01*
X689183Y245059D01*
X688559Y245683D01*
X687794Y246124D01*
X686941Y246353D01*
D02*
G37*
G36*
X653395Y245500D02*
X652605D01*
X651842Y245296D01*
X651158Y244901D01*
X650599Y244342D01*
X650204Y243658D01*
X650000Y242895D01*
Y242105D01*
X650204Y241342D01*
X650599Y240658D01*
X651158Y240099D01*
X651842Y239704D01*
X652605Y239500D01*
X653395D01*
X654158Y239704D01*
X654842Y240099D01*
X655401Y240658D01*
X655796Y241342D01*
X656000Y242105D01*
Y242895D01*
X655796Y243658D01*
X655401Y244342D01*
X654842Y244901D01*
X654158Y245296D01*
X653395Y245500D01*
D02*
G37*
G36*
X675895Y236000D02*
X675105D01*
X674342Y235796D01*
X673658Y235401D01*
X673099Y234842D01*
X672704Y234158D01*
X672500Y233395D01*
Y232605D01*
X672704Y231842D01*
X673099Y231158D01*
X673658Y230599D01*
X674342Y230204D01*
X675105Y230000D01*
X675895D01*
X676658Y230204D01*
X677342Y230599D01*
X677901Y231158D01*
X678296Y231842D01*
X678500Y232605D01*
Y233395D01*
X678296Y234158D01*
X677901Y234842D01*
X677342Y235401D01*
X676658Y235796D01*
X675895Y236000D01*
D02*
G37*
G36*
X689853Y236353D02*
X683147D01*
Y229647D01*
X689853D01*
Y236353D01*
D02*
G37*
G36*
X522395Y228500D02*
X521605D01*
X520842Y228296D01*
X520158Y227901D01*
X519599Y227342D01*
X519204Y226658D01*
X519000Y225895D01*
Y225105D01*
X519204Y224342D01*
X519599Y223658D01*
X520158Y223099D01*
X520842Y222704D01*
X521605Y222500D01*
X522395D01*
X523158Y222704D01*
X523842Y223099D01*
X524401Y223658D01*
X524796Y224342D01*
X525000Y225105D01*
Y225895D01*
X524796Y226658D01*
X524401Y227342D01*
X523842Y227901D01*
X523158Y228296D01*
X522395Y228500D01*
D02*
G37*
G36*
X502395Y211500D02*
X501605D01*
X500842Y211296D01*
X500158Y210901D01*
X499599Y210342D01*
X499204Y209658D01*
X499000Y208895D01*
Y208105D01*
X499204Y207342D01*
X499599Y206658D01*
X500158Y206099D01*
X500842Y205704D01*
X501605Y205500D01*
X502395D01*
X503158Y205704D01*
X503842Y206099D01*
X504401Y206658D01*
X504796Y207342D01*
X505000Y208105D01*
Y208895D01*
X504796Y209658D01*
X504401Y210342D01*
X503842Y210901D01*
X503158Y211296D01*
X502395Y211500D01*
D02*
G37*
G36*
X544895Y209500D02*
X544105D01*
X543342Y209296D01*
X542658Y208901D01*
X542099Y208342D01*
X541704Y207658D01*
X541500Y206895D01*
Y206105D01*
X541704Y205342D01*
X542099Y204658D01*
X542658Y204099D01*
X543342Y203704D01*
X544105Y203500D01*
X544895D01*
X545658Y203704D01*
X546342Y204099D01*
X546901Y204658D01*
X547296Y205342D01*
X547500Y206105D01*
Y206895D01*
X547296Y207658D01*
X546901Y208342D01*
X546342Y208901D01*
X545658Y209296D01*
X544895Y209500D01*
D02*
G37*
G36*
X686441Y206853D02*
X685559D01*
X684706Y206624D01*
X683941Y206183D01*
X683317Y205559D01*
X682876Y204794D01*
X682647Y203941D01*
Y203059D01*
X682876Y202206D01*
X683317Y201441D01*
X683941Y200817D01*
X684706Y200376D01*
X685559Y200147D01*
X686441D01*
X687294Y200376D01*
X688059Y200817D01*
X688683Y201441D01*
X689124Y202206D01*
X689353Y203059D01*
Y203941D01*
X689124Y204794D01*
X688683Y205559D01*
X688059Y206183D01*
X687294Y206624D01*
X686441Y206853D01*
D02*
G37*
G36*
X652390Y205459D02*
X651610D01*
X650858Y205257D01*
X650183Y204868D01*
X649632Y204317D01*
X649243Y203642D01*
X649041Y202890D01*
Y202110D01*
X649243Y201358D01*
X649632Y200683D01*
X650183Y200132D01*
X650858Y199743D01*
X651610Y199541D01*
X652390D01*
X653142Y199743D01*
X653817Y200132D01*
X654368Y200683D01*
X654757Y201358D01*
X654959Y202110D01*
Y202890D01*
X654757Y203642D01*
X654368Y204317D01*
X653817Y204868D01*
X653142Y205257D01*
X652390Y205459D01*
D02*
G37*
G36*
X644516D02*
X643736D01*
X642984Y205257D01*
X642309Y204868D01*
X641758Y204317D01*
X641369Y203642D01*
X641167Y202890D01*
Y202110D01*
X641369Y201358D01*
X641758Y200683D01*
X642309Y200132D01*
X642984Y199743D01*
X643736Y199541D01*
X644516D01*
X645268Y199743D01*
X645943Y200132D01*
X646494Y200683D01*
X646883Y201358D01*
X647085Y202110D01*
Y202890D01*
X646883Y203642D01*
X646494Y204317D01*
X645943Y204868D01*
X645268Y205257D01*
X644516Y205459D01*
D02*
G37*
G36*
X557853Y199353D02*
X551147D01*
Y192647D01*
X557853D01*
Y199353D01*
D02*
G37*
G36*
X534941D02*
X534059D01*
X533206Y199124D01*
X532441Y198683D01*
X531817Y198059D01*
X531376Y197294D01*
X531147Y196441D01*
Y195559D01*
X531376Y194706D01*
X531817Y193941D01*
X532441Y193317D01*
X533206Y192876D01*
X534059Y192647D01*
X534941D01*
X535794Y192876D01*
X536559Y193317D01*
X537183Y193941D01*
X537624Y194706D01*
X537853Y195559D01*
Y196441D01*
X537624Y197294D01*
X537183Y198059D01*
X536559Y198683D01*
X535794Y199124D01*
X534941Y199353D01*
D02*
G37*
G36*
X544941D02*
X544059D01*
X543206Y199124D01*
X542441Y198683D01*
X541817Y198059D01*
X541376Y197294D01*
X541147Y196441D01*
Y195559D01*
X541376Y194706D01*
X541817Y193941D01*
X542345Y193414D01*
X542464Y192827D01*
X542394Y192756D01*
X541999Y192072D01*
X541795Y191309D01*
Y190519D01*
X541999Y189756D01*
X542394Y189072D01*
X542953Y188514D01*
X543637Y188119D01*
X544400Y187914D01*
X545190D01*
X545953Y188119D01*
X546637Y188514D01*
X547195Y189072D01*
X547590Y189756D01*
X547795Y190519D01*
Y191309D01*
X547590Y192072D01*
X547195Y192756D01*
X546950Y193001D01*
X546934Y193692D01*
X547183Y193941D01*
X547624Y194706D01*
X547853Y195559D01*
Y196441D01*
X547624Y197294D01*
X547183Y198059D01*
X546559Y198683D01*
X545794Y199124D01*
X544941Y199353D01*
D02*
G37*
G36*
X689353Y196853D02*
X682647D01*
Y190147D01*
X686306D01*
X686500Y189895D01*
Y189105D01*
X686704Y188342D01*
X687099Y187658D01*
X687658Y187099D01*
X688342Y186704D01*
X689105Y186500D01*
X689895D01*
X690658Y186704D01*
X691342Y187099D01*
X691901Y187658D01*
X692296Y188342D01*
X692500Y189105D01*
Y189895D01*
X692296Y190658D01*
X691901Y191342D01*
X691342Y191901D01*
X690658Y192296D01*
X689895Y192500D01*
X689353D01*
Y196853D01*
D02*
G37*
G36*
X556395Y188500D02*
X555605D01*
X554842Y188296D01*
X554158Y187901D01*
X553599Y187342D01*
X553204Y186658D01*
X553000Y185895D01*
Y185105D01*
X553204Y184342D01*
X553599Y183658D01*
X554158Y183099D01*
X554842Y182704D01*
X555605Y182500D01*
X556395D01*
X557158Y182704D01*
X557842Y183099D01*
X558401Y183658D01*
X558796Y184342D01*
X559000Y185105D01*
Y185895D01*
X558796Y186658D01*
X558401Y187342D01*
X557842Y187901D01*
X557158Y188296D01*
X556395Y188500D01*
D02*
G37*
G36*
X491395Y180500D02*
X490605D01*
X489842Y180296D01*
X489158Y179901D01*
X488599Y179342D01*
X488204Y178658D01*
X488000Y177895D01*
Y177105D01*
X488204Y176342D01*
X488599Y175658D01*
X489158Y175099D01*
X489842Y174704D01*
X490605Y174500D01*
X491395D01*
X492158Y174704D01*
X492842Y175099D01*
X493401Y175658D01*
X493796Y176342D01*
X494000Y177105D01*
Y177895D01*
X493796Y178658D01*
X493401Y179342D01*
X492842Y179901D01*
X492158Y180296D01*
X491395Y180500D01*
D02*
G37*
G36*
X527395Y176000D02*
X526605D01*
X525842Y175796D01*
X525158Y175401D01*
X524599Y174842D01*
X524204Y174158D01*
X524000Y173395D01*
Y172605D01*
X524204Y171842D01*
X524599Y171158D01*
X525158Y170599D01*
X525842Y170204D01*
X526605Y170000D01*
X527395D01*
X528158Y170204D01*
X528842Y170599D01*
X529401Y171158D01*
X529796Y171842D01*
X530000Y172605D01*
Y173395D01*
X529796Y174158D01*
X529401Y174842D01*
X528842Y175401D01*
X528158Y175796D01*
X527395Y176000D01*
D02*
G37*
G36*
X646895Y172500D02*
X646105D01*
X645342Y172296D01*
X644658Y171901D01*
X644099Y171342D01*
X643704Y170658D01*
X643500Y169895D01*
Y169105D01*
X643704Y168342D01*
X644099Y167658D01*
X644658Y167099D01*
X645342Y166704D01*
X646105Y166500D01*
X646895D01*
X647658Y166704D01*
X648342Y167099D01*
X648901Y167658D01*
X649296Y168342D01*
X649500Y169105D01*
Y169895D01*
X649296Y170658D01*
X648901Y171342D01*
X648342Y171901D01*
X647658Y172296D01*
X646895Y172500D01*
D02*
G37*
G36*
X679895Y165500D02*
X679105D01*
X678342Y165296D01*
X677658Y164901D01*
X677099Y164342D01*
X676704Y163658D01*
X676500Y162895D01*
Y162105D01*
X676704Y161342D01*
X677099Y160658D01*
X677658Y160099D01*
X678342Y159704D01*
X679105Y159500D01*
X679895D01*
X680658Y159704D01*
X681342Y160099D01*
X681901Y160658D01*
X682296Y161342D01*
X682500Y162105D01*
Y162895D01*
X682296Y163658D01*
X681901Y164342D01*
X681342Y164901D01*
X680658Y165296D01*
X679895Y165500D01*
D02*
G37*
G36*
X674337Y159886D02*
X673490D01*
X672672Y159667D01*
X671938Y159244D01*
X671339Y158644D01*
X670916Y157911D01*
X670696Y157093D01*
Y156246D01*
X670916Y155428D01*
X671339Y154694D01*
X671938Y154095D01*
X672672Y153672D01*
X673490Y153452D01*
X674337D01*
X675155Y153672D01*
X675889Y154095D01*
X676488Y154694D01*
X676911Y155428D01*
X677130Y156246D01*
Y157093D01*
X676911Y157911D01*
X676488Y158644D01*
X675889Y159244D01*
X675155Y159667D01*
X674337Y159886D01*
D02*
G37*
G36*
X664494D02*
X663647D01*
X662829Y159667D01*
X662096Y159244D01*
X661497Y158644D01*
X661073Y157911D01*
X660854Y157093D01*
Y156246D01*
X661073Y155428D01*
X661497Y154694D01*
X662096Y154095D01*
X662829Y153672D01*
X663647Y153452D01*
X664494D01*
X665313Y153672D01*
X666046Y154095D01*
X666645Y154694D01*
X667069Y155428D01*
X667288Y156246D01*
Y157093D01*
X667069Y157911D01*
X666645Y158644D01*
X666046Y159244D01*
X665313Y159667D01*
X664494Y159886D01*
D02*
G37*
G36*
X656620D02*
X655773D01*
X654955Y159667D01*
X654222Y159244D01*
X653623Y158644D01*
X653199Y157911D01*
X652980Y157093D01*
Y156246D01*
X653199Y155428D01*
X653623Y154694D01*
X654222Y154095D01*
X654955Y153672D01*
X655773Y153452D01*
X656620D01*
X657439Y153672D01*
X658172Y154095D01*
X658771Y154694D01*
X659195Y155428D01*
X659414Y156246D01*
Y157093D01*
X659195Y157911D01*
X658771Y158644D01*
X658172Y159244D01*
X657439Y159667D01*
X656620Y159886D01*
D02*
G37*
G36*
X646778D02*
X645931D01*
X645113Y159667D01*
X644379Y159244D01*
X643780Y158644D01*
X643357Y157911D01*
X643137Y157093D01*
Y156246D01*
X643357Y155428D01*
X643780Y154694D01*
X644379Y154095D01*
X645113Y153672D01*
X645931Y153452D01*
X646778D01*
X647596Y153672D01*
X648330Y154095D01*
X648928Y154694D01*
X649352Y155428D01*
X649571Y156246D01*
Y157093D01*
X649352Y157911D01*
X648928Y158644D01*
X648330Y159244D01*
X647596Y159667D01*
X646778Y159886D01*
D02*
G37*
G36*
X500346Y150451D02*
X499556D01*
X498793Y150246D01*
X498109Y149851D01*
X497550Y149293D01*
X497155Y148609D01*
X496951Y147846D01*
Y147056D01*
X497155Y146293D01*
X497550Y145609D01*
X498109Y145050D01*
X498793Y144655D01*
X499556Y144451D01*
X500346D01*
X501109Y144655D01*
X501793Y145050D01*
X502351Y145609D01*
X502746Y146293D01*
X502951Y147056D01*
Y147846D01*
X502746Y148609D01*
X502351Y149293D01*
X501793Y149851D01*
X501109Y150246D01*
X500346Y150451D01*
D02*
G37*
G36*
X686708Y153191D02*
X685292D01*
X683902Y152915D01*
X682594Y152373D01*
X681416Y151586D01*
X680414Y150584D01*
X679627Y149406D01*
X679085Y148098D01*
X678809Y146708D01*
Y145292D01*
X679085Y143902D01*
X679627Y142594D01*
X680414Y141416D01*
X681416Y140414D01*
X682594Y139627D01*
X683902Y139085D01*
X685292Y138809D01*
X686708D01*
X688098Y139085D01*
X689406Y139627D01*
X690584Y140414D01*
X691586Y141416D01*
X692373Y142594D01*
X692915Y143902D01*
X693191Y145292D01*
Y146708D01*
X692915Y148098D01*
X692373Y149406D01*
X691586Y150584D01*
X690584Y151586D01*
X689406Y152373D01*
X688098Y152915D01*
X686708Y153191D01*
D02*
G37*
G36*
X634976D02*
X633559D01*
X632170Y152915D01*
X630861Y152373D01*
X629683Y151586D01*
X628682Y150584D01*
X627895Y149406D01*
X627353Y148098D01*
X627076Y146708D01*
Y145292D01*
X627353Y143902D01*
X627895Y142594D01*
X628682Y141416D01*
X629683Y140414D01*
X630861Y139627D01*
X632170Y139085D01*
X633559Y138809D01*
X634976D01*
X636365Y139085D01*
X637674Y139627D01*
X638852Y140414D01*
X639854Y141416D01*
X640641Y142594D01*
X641183Y143902D01*
X641459Y145292D01*
Y146708D01*
X641183Y148098D01*
X640641Y149406D01*
X639854Y150584D01*
X638852Y151586D01*
X637674Y152373D01*
X636365Y152915D01*
X634976Y153191D01*
D02*
G37*
G36*
X634395Y138000D02*
X633605D01*
X632842Y137796D01*
X632158Y137401D01*
X631599Y136842D01*
X631204Y136158D01*
X631000Y135395D01*
Y134605D01*
X631204Y133842D01*
X631599Y133158D01*
X632158Y132599D01*
X632842Y132204D01*
X633605Y132000D01*
X634395D01*
X635158Y132204D01*
X635842Y132599D01*
X636401Y133158D01*
X636796Y133842D01*
X637000Y134605D01*
Y135395D01*
X636796Y136158D01*
X636401Y136842D01*
X635842Y137401D01*
X635158Y137796D01*
X634395Y138000D01*
D02*
G37*
G36*
X686395Y137500D02*
X685605D01*
X684842Y137296D01*
X684158Y136901D01*
X683599Y136342D01*
X683204Y135658D01*
X683000Y134895D01*
Y134105D01*
X683204Y133342D01*
X683599Y132658D01*
X684158Y132099D01*
X684842Y131704D01*
X685605Y131500D01*
X686395D01*
X687158Y131704D01*
X687842Y132099D01*
X688401Y132658D01*
X688796Y133342D01*
X689000Y134105D01*
Y134895D01*
X688796Y135658D01*
X688401Y136342D01*
X687842Y136901D01*
X687158Y137296D01*
X686395Y137500D01*
D02*
G37*
G36*
X562895Y132500D02*
X562105D01*
X561342Y132296D01*
X560658Y131901D01*
X560099Y131342D01*
X559704Y130658D01*
X559500Y129895D01*
Y129105D01*
X559704Y128342D01*
X560099Y127658D01*
X560658Y127099D01*
X561342Y126704D01*
X562105Y126500D01*
X562895D01*
X563658Y126704D01*
X564342Y127099D01*
X564901Y127658D01*
X565296Y128342D01*
X565500Y129105D01*
Y129895D01*
X565296Y130658D01*
X564901Y131342D01*
X564342Y131901D01*
X563658Y132296D01*
X562895Y132500D01*
D02*
G37*
G36*
X527524Y131954D02*
X526854Y131866D01*
X526230Y131607D01*
X525694Y131196D01*
X525283Y130660D01*
X525024Y130036D01*
X524936Y129366D01*
Y127004D01*
X525024Y126334D01*
X525283Y125710D01*
X525694Y125174D01*
X526230Y124763D01*
X526854Y124505D01*
X527524Y124416D01*
X528193Y124505D01*
X528817Y124763D01*
X529353Y125174D01*
X529765Y125710D01*
X530023Y126334D01*
X530111Y127004D01*
Y129366D01*
X530023Y130036D01*
X529765Y130660D01*
X529353Y131196D01*
X528817Y131607D01*
X528193Y131866D01*
X527524Y131954D01*
D02*
G37*
G36*
X493508D02*
X492838Y131866D01*
X492214Y131607D01*
X491678Y131196D01*
X491267Y130660D01*
X491009Y130036D01*
X490920Y129366D01*
Y127004D01*
X491009Y126334D01*
X491267Y125710D01*
X491678Y125174D01*
X492214Y124763D01*
X492838Y124505D01*
X493508Y124416D01*
X494178Y124505D01*
X494802Y124763D01*
X495337Y125174D01*
X495749Y125710D01*
X496007Y126334D01*
X496095Y127004D01*
Y129366D01*
X496007Y130036D01*
X495749Y130660D01*
X495337Y131196D01*
X494802Y131607D01*
X494178Y131866D01*
X493508Y131954D01*
D02*
G37*
G36*
X591819Y136400D02*
X590181D01*
X588565Y136144D01*
X587008Y135638D01*
X585549Y134895D01*
X584225Y133933D01*
X583067Y132775D01*
X582105Y131451D01*
X581362Y129992D01*
X580856Y128435D01*
X580600Y126819D01*
Y125181D01*
X580856Y123565D01*
X581362Y122008D01*
X582105Y120549D01*
X583067Y119225D01*
X584225Y118067D01*
X585549Y117105D01*
X587008Y116362D01*
X588565Y115856D01*
X590181Y115600D01*
X591819D01*
X593435Y115856D01*
X594992Y116362D01*
X596451Y117105D01*
X597775Y118067D01*
X598933Y119225D01*
X599895Y120549D01*
X600638Y122008D01*
X601144Y123565D01*
X601400Y125181D01*
Y126819D01*
X601144Y128435D01*
X600638Y129992D01*
X599895Y131451D01*
X598933Y132775D01*
X597775Y133933D01*
X596451Y134895D01*
X594992Y135638D01*
X593435Y136144D01*
X591819Y136400D01*
D02*
G37*
G36*
X527524Y116993D02*
X526854Y116905D01*
X526230Y116646D01*
X525694Y116235D01*
X525283Y115699D01*
X525024Y115075D01*
X524936Y114406D01*
Y112043D01*
X525024Y111374D01*
X525283Y110750D01*
X525694Y110214D01*
X526230Y109802D01*
X526854Y109544D01*
X527524Y109456D01*
X528193Y109544D01*
X528817Y109802D01*
X529353Y110214D01*
X529765Y110750D01*
X530023Y111374D01*
X530111Y112043D01*
Y114406D01*
X530023Y115075D01*
X529765Y115699D01*
X529353Y116235D01*
X528817Y116646D01*
X528193Y116905D01*
X527524Y116993D01*
D02*
G37*
G36*
X493508D02*
X492838Y116905D01*
X492214Y116646D01*
X491678Y116235D01*
X491267Y115699D01*
X491009Y115075D01*
X490920Y114406D01*
Y112043D01*
X491009Y111374D01*
X491267Y110750D01*
X491678Y110214D01*
X492214Y109802D01*
X492838Y109544D01*
X493508Y109456D01*
X494178Y109544D01*
X494802Y109802D01*
X495337Y110214D01*
X495749Y110750D01*
X496007Y111374D01*
X496095Y112043D01*
Y114406D01*
X496007Y115075D01*
X495749Y115699D01*
X495337Y116235D01*
X494802Y116646D01*
X494178Y116905D01*
X493508Y116993D01*
D02*
G37*
%LPD*%
D60*
X527524Y113224D02*
D03*
X493508D02*
D03*
X527524Y128185D02*
D03*
X493508D02*
D03*
D70*
X686500Y233000D02*
D03*
X686000Y193500D02*
D03*
D71*
X686500Y243000D02*
D03*
Y253000D02*
D03*
Y263000D02*
D03*
Y273000D02*
D03*
X544500Y196000D02*
D03*
X534500D02*
D03*
X686000Y203500D02*
D03*
D72*
Y146000D02*
D03*
X634268D02*
D03*
D73*
X673913Y156669D02*
D03*
X664071D02*
D03*
X656197D02*
D03*
X646354D02*
D03*
D74*
X684500Y365000D02*
D03*
X497000D02*
D03*
X591000Y126000D02*
D03*
D75*
X554500Y196000D02*
D03*
D76*
X652000Y202500D02*
D03*
X644126D02*
D03*
D77*
X562500Y129500D02*
D03*
X690500Y265500D02*
D03*
X634000Y135000D02*
D03*
X686000Y134500D02*
D03*
X596000Y315750D02*
D03*
X591000Y301500D02*
D03*
X571000Y293000D02*
D03*
X619500Y296500D02*
D03*
X675500Y233000D02*
D03*
X637000Y255000D02*
D03*
X646500Y169500D02*
D03*
X517500Y271000D02*
D03*
X677500Y243000D02*
D03*
X561500Y365000D02*
D03*
X563500Y279500D02*
D03*
X617500Y312000D02*
D03*
X652000Y271000D02*
D03*
X520000Y298500D02*
D03*
X638000Y327000D02*
D03*
Y338000D02*
D03*
X566500Y307000D02*
D03*
X533500Y290000D02*
D03*
X570000Y330000D02*
D03*
X540000Y232000D02*
D03*
X525000Y314000D02*
D03*
X533500Y347500D02*
D03*
X497500Y342000D02*
D03*
X501000Y306000D02*
D03*
Y314000D02*
D03*
X502000Y208500D02*
D03*
X534500Y301000D02*
D03*
X603500Y336500D02*
D03*
X577500Y274500D02*
D03*
X544795Y190914D02*
D03*
X679500Y162500D02*
D03*
X689500Y189500D02*
D03*
X690000Y276000D02*
D03*
X599500Y243500D02*
D03*
X653000Y242500D02*
D03*
X657000Y282500D02*
D03*
X613500Y295500D02*
D03*
X571500Y341000D02*
D03*
X578500Y317500D02*
D03*
X529500Y331500D02*
D03*
X493000Y278000D02*
D03*
X522000Y225500D02*
D03*
X527000Y173000D02*
D03*
X499951Y147451D02*
D03*
X544500Y206500D02*
D03*
X556000Y185500D02*
D03*
X491000Y177500D02*
D03*
M02*
